<?xml version="1.0" encoding="UTF-8" standalone="no"?>
<!-- Created with Inkscape (http://www.inkscape.org/) -->

<svg
   version="1.1"
   id="svg2"
   width="1039.2373"
   height="322.46265"
   viewBox="0 0 1039.2373 322.46264"
   xmlns="http://www.w3.org/2000/svg"
   xmlns:svg="http://www.w3.org/2000/svg">
  <defs
     id="defs6">
    <clipPath
       clipPathUnits="userSpaceOnUse"
       id="clipPath18">
      <path
         d="M 0,595.276 H 841.89 V 0 H 0 Z"
         id="path16" />
    </clipPath>
    <linearGradient
       x1="0"
       y1="0"
       x2="1"
       y2="0"
       gradientUnits="userSpaceOnUse"
       gradientTransform="matrix(519.23303,0,0,-519.23303,291.24887,326.01865)"
       spreadMethod="pad"
       id="linearGradient70">
      <stop
         style="stop-opacity:1;stop-color:#264d9d"
         offset="0"
         id="stop60" />
      <stop
         style="stop-opacity:1;stop-color:#264d9d"
         offset="0.00533234"
         id="stop62" />
      <stop
         style="stop-opacity:1;stop-color:#216caa"
         offset="0.285942"
         id="stop64" />
      <stop
         style="stop-opacity:1;stop-color:#41954b"
         offset="0.608528"
         id="stop66" />
      <stop
         style="stop-opacity:1;stop-color:#79bc43"
         offset="1"
         id="stop68" />
    </linearGradient>
    <linearGradient
       x1="0"
       y1="0"
       x2="1"
       y2="0"
       gradientUnits="userSpaceOnUse"
       gradientTransform="matrix(519.23303,0,0,-519.23303,298.90244,326.01865)"
       spreadMethod="pad"
       id="linearGradient96">
      <stop
         style="stop-opacity:1;stop-color:#264d9d"
         offset="0"
         id="stop86" />
      <stop
         style="stop-opacity:1;stop-color:#264d9d"
         offset="0.00533234"
         id="stop88" />
      <stop
         style="stop-opacity:1;stop-color:#216caa"
         offset="0.285942"
         id="stop90" />
      <stop
         style="stop-opacity:1;stop-color:#41954b"
         offset="0.608528"
         id="stop92" />
      <stop
         style="stop-opacity:1;stop-color:#79bc43"
         offset="1"
         id="stop94" />
    </linearGradient>
    <linearGradient
       x1="0"
       y1="0"
       x2="1"
       y2="0"
       gradientUnits="userSpaceOnUse"
       gradientTransform="matrix(519.23303,0,0,-519.23303,298.90244,326.01865)"
       spreadMethod="pad"
       id="linearGradient122">
      <stop
         style="stop-opacity:1;stop-color:#264d9d"
         offset="0"
         id="stop112" />
      <stop
         style="stop-opacity:1;stop-color:#264d9d"
         offset="0.00533234"
         id="stop114" />
      <stop
         style="stop-opacity:1;stop-color:#216caa"
         offset="0.285942"
         id="stop116" />
      <stop
         style="stop-opacity:1;stop-color:#41954b"
         offset="0.608528"
         id="stop118" />
      <stop
         style="stop-opacity:1;stop-color:#79bc43"
         offset="1"
         id="stop120" />
    </linearGradient>
    <linearGradient
       x1="0"
       y1="0"
       x2="1"
       y2="0"
       gradientUnits="userSpaceOnUse"
       gradientTransform="matrix(519.23303,0,0,-519.23303,298.90244,326.01865)"
       spreadMethod="pad"
       id="linearGradient148">
      <stop
         style="stop-opacity:1;stop-color:#264d9d"
         offset="0"
         id="stop138" />
      <stop
         style="stop-opacity:1;stop-color:#264d9d"
         offset="0.00533234"
         id="stop140" />
      <stop
         style="stop-opacity:1;stop-color:#216caa"
         offset="0.285942"
         id="stop142" />
      <stop
         style="stop-opacity:1;stop-color:#41954b"
         offset="0.608528"
         id="stop144" />
      <stop
         style="stop-opacity:1;stop-color:#79bc43"
         offset="1"
         id="stop146" />
    </linearGradient>
    <clipPath
       clipPathUnits="userSpaceOnUse"
       id="clipPath158">
      <path
         d="M 0,595.276 H 841.89 V 0 H 0 Z"
         id="path156" />
    </clipPath>
    <radialGradient
       fx="0"
       fy="0"
       cx="0"
       cy="0"
       r="1"
       gradientUnits="userSpaceOnUse"
       gradientTransform="matrix(156.75894,-88.80764,-88.80764,-156.75894,84.956558,324.42072)"
       spreadMethod="pad"
       id="radialGradient190">
      <stop
         style="stop-opacity:1;stop-color:#264d9d"
         offset="0"
         id="stop180" />
      <stop
         style="stop-opacity:1;stop-color:#264d9d"
         offset="0.00533234"
         id="stop182" />
      <stop
         style="stop-opacity:1;stop-color:#216caa"
         offset="0.285942"
         id="stop184" />
      <stop
         style="stop-opacity:1;stop-color:#41954b"
         offset="0.608528"
         id="stop186" />
      <stop
         style="stop-opacity:1;stop-color:#79bc43"
         offset="1"
         id="stop188" />
    </radialGradient>
    <radialGradient
       fx="0"
       fy="0"
       cx="0"
       cy="0"
       r="1"
       gradientUnits="userSpaceOnUse"
       gradientTransform="matrix(156.75894,-88.80764,-88.80764,-156.75894,84.956558,324.42072)"
       spreadMethod="pad"
       id="radialGradient216">
      <stop
         style="stop-opacity:1;stop-color:#264d9d"
         offset="0"
         id="stop206" />
      <stop
         style="stop-opacity:1;stop-color:#264d9d"
         offset="0.00533234"
         id="stop208" />
      <stop
         style="stop-opacity:1;stop-color:#216caa"
         offset="0.285942"
         id="stop210" />
      <stop
         style="stop-opacity:1;stop-color:#41954b"
         offset="0.608528"
         id="stop212" />
      <stop
         style="stop-opacity:1;stop-color:#79bc43"
         offset="1"
         id="stop214" />
    </radialGradient>
    <radialGradient
       fx="0"
       fy="0"
       cx="0"
       cy="0"
       r="1"
       gradientUnits="userSpaceOnUse"
       gradientTransform="matrix(156.75894,-88.80764,-88.80764,-156.75894,84.956558,324.42072)"
       spreadMethod="pad"
       id="radialGradient242">
      <stop
         style="stop-opacity:1;stop-color:#264d9d"
         offset="0"
         id="stop232" />
      <stop
         style="stop-opacity:1;stop-color:#264d9d"
         offset="0.00533234"
         id="stop234" />
      <stop
         style="stop-opacity:1;stop-color:#216caa"
         offset="0.285942"
         id="stop236" />
      <stop
         style="stop-opacity:1;stop-color:#41954b"
         offset="0.608528"
         id="stop238" />
      <stop
         style="stop-opacity:1;stop-color:#79bc43"
         offset="1"
         id="stop240" />
    </radialGradient>
    <radialGradient
       fx="0"
       fy="0"
       cx="0"
       cy="0"
       r="1"
       gradientUnits="userSpaceOnUse"
       gradientTransform="matrix(156.75894,-88.80764,-88.80764,-156.75894,84.956558,324.42072)"
       spreadMethod="pad"
       id="radialGradient268">
      <stop
         style="stop-opacity:1;stop-color:#264d9d"
         offset="0"
         id="stop258" />
      <stop
         style="stop-opacity:1;stop-color:#264d9d"
         offset="0.00533234"
         id="stop260" />
      <stop
         style="stop-opacity:1;stop-color:#216caa"
         offset="0.285942"
         id="stop262" />
      <stop
         style="stop-opacity:1;stop-color:#41954b"
         offset="0.608528"
         id="stop264" />
      <stop
         style="stop-opacity:1;stop-color:#79bc43"
         offset="1"
         id="stop266" />
    </radialGradient>
    <radialGradient
       fx="0"
       fy="0"
       cx="0"
       cy="0"
       r="1"
       gradientUnits="userSpaceOnUse"
       gradientTransform="matrix(156.75894,-88.80764,-88.80764,-156.75894,84.956558,324.42072)"
       spreadMethod="pad"
       id="radialGradient294">
      <stop
         style="stop-opacity:1;stop-color:#264d9d"
         offset="0"
         id="stop284" />
      <stop
         style="stop-opacity:1;stop-color:#264d9d"
         offset="0.00533234"
         id="stop286" />
      <stop
         style="stop-opacity:1;stop-color:#216caa"
         offset="0.285942"
         id="stop288" />
      <stop
         style="stop-opacity:1;stop-color:#41954b"
         offset="0.608528"
         id="stop290" />
      <stop
         style="stop-opacity:1;stop-color:#79bc43"
         offset="1"
         id="stop292" />
    </radialGradient>
    <radialGradient
       fx="0"
       fy="0"
       cx="0"
       cy="0"
       r="1"
       gradientUnits="userSpaceOnUse"
       gradientTransform="matrix(156.75894,-88.80764,-88.80764,-156.75894,84.956558,324.42072)"
       spreadMethod="pad"
       id="radialGradient320">
      <stop
         style="stop-opacity:1;stop-color:#264d9d"
         offset="0"
         id="stop310" />
      <stop
         style="stop-opacity:1;stop-color:#264d9d"
         offset="0.00533234"
         id="stop312" />
      <stop
         style="stop-opacity:1;stop-color:#216caa"
         offset="0.285942"
         id="stop314" />
      <stop
         style="stop-opacity:1;stop-color:#41954b"
         offset="0.608528"
         id="stop316" />
      <stop
         style="stop-opacity:1;stop-color:#79bc43"
         offset="1"
         id="stop318" />
    </radialGradient>
    <radialGradient
       fx="0"
       fy="0"
       cx="0"
       cy="0"
       r="1"
       gradientUnits="userSpaceOnUse"
       gradientTransform="matrix(156.75894,-88.80764,-88.80764,-156.75894,84.956558,324.42072)"
       spreadMethod="pad"
       id="radialGradient346">
      <stop
         style="stop-opacity:1;stop-color:#264d9d"
         offset="0"
         id="stop336" />
      <stop
         style="stop-opacity:1;stop-color:#264d9d"
         offset="0.00533234"
         id="stop338" />
      <stop
         style="stop-opacity:1;stop-color:#216caa"
         offset="0.285942"
         id="stop340" />
      <stop
         style="stop-opacity:1;stop-color:#41954b"
         offset="0.608528"
         id="stop342" />
      <stop
         style="stop-opacity:1;stop-color:#79bc43"
         offset="1"
         id="stop344" />
    </radialGradient>
    <radialGradient
       fx="0"
       fy="0"
       cx="0"
       cy="0"
       r="1"
       gradientUnits="userSpaceOnUse"
       gradientTransform="matrix(156.75894,-88.80764,-88.80764,-156.75894,84.956558,324.42072)"
       spreadMethod="pad"
       id="radialGradient372">
      <stop
         style="stop-opacity:1;stop-color:#264d9d"
         offset="0"
         id="stop362" />
      <stop
         style="stop-opacity:1;stop-color:#264d9d"
         offset="0.00533234"
         id="stop364" />
      <stop
         style="stop-opacity:1;stop-color:#216caa"
         offset="0.285942"
         id="stop366" />
      <stop
         style="stop-opacity:1;stop-color:#41954b"
         offset="0.608528"
         id="stop368" />
      <stop
         style="stop-opacity:1;stop-color:#79bc43"
         offset="1"
         id="stop370" />
    </radialGradient>
    <radialGradient
       fx="0"
       fy="0"
       cx="0"
       cy="0"
       r="1"
       gradientUnits="userSpaceOnUse"
       gradientTransform="matrix(156.75894,-88.80764,-88.80764,-156.75894,84.956558,324.42072)"
       spreadMethod="pad"
       id="radialGradient398">
      <stop
         style="stop-opacity:1;stop-color:#264d9d"
         offset="0"
         id="stop388" />
      <stop
         style="stop-opacity:1;stop-color:#264d9d"
         offset="0.00533234"
         id="stop390" />
      <stop
         style="stop-opacity:1;stop-color:#216caa"
         offset="0.285942"
         id="stop392" />
      <stop
         style="stop-opacity:1;stop-color:#41954b"
         offset="0.608528"
         id="stop394" />
      <stop
         style="stop-opacity:1;stop-color:#79bc43"
         offset="1"
         id="stop396" />
    </radialGradient>
    <radialGradient
       fx="0"
       fy="0"
       cx="0"
       cy="0"
       r="1"
       gradientUnits="userSpaceOnUse"
       gradientTransform="matrix(156.75894,-88.80764,-88.80764,-156.75894,84.956558,324.42072)"
       spreadMethod="pad"
       id="radialGradient424">
      <stop
         style="stop-opacity:1;stop-color:#264d9d"
         offset="0"
         id="stop414" />
      <stop
         style="stop-opacity:1;stop-color:#264d9d"
         offset="0.00533234"
         id="stop416" />
      <stop
         style="stop-opacity:1;stop-color:#216caa"
         offset="0.285942"
         id="stop418" />
      <stop
         style="stop-opacity:1;stop-color:#41954b"
         offset="0.608528"
         id="stop420" />
      <stop
         style="stop-opacity:1;stop-color:#79bc43"
         offset="1"
         id="stop422" />
    </radialGradient>
    <radialGradient
       fx="0"
       fy="0"
       cx="0"
       cy="0"
       r="1"
       gradientUnits="userSpaceOnUse"
       gradientTransform="matrix(156.75894,-88.80764,-88.80764,-156.75894,84.956558,324.42072)"
       spreadMethod="pad"
       id="radialGradient450">
      <stop
         style="stop-opacity:1;stop-color:#264d9d"
         offset="0"
         id="stop440" />
      <stop
         style="stop-opacity:1;stop-color:#264d9d"
         offset="0.00533234"
         id="stop442" />
      <stop
         style="stop-opacity:1;stop-color:#216caa"
         offset="0.285942"
         id="stop444" />
      <stop
         style="stop-opacity:1;stop-color:#41954b"
         offset="0.608528"
         id="stop446" />
      <stop
         style="stop-opacity:1;stop-color:#79bc43"
         offset="1"
         id="stop448" />
    </radialGradient>
    <radialGradient
       fx="0"
       fy="0"
       cx="0"
       cy="0"
       r="1"
       gradientUnits="userSpaceOnUse"
       gradientTransform="matrix(156.75894,-88.80764,-88.80764,-156.75894,84.956558,324.42072)"
       spreadMethod="pad"
       id="radialGradient476">
      <stop
         style="stop-opacity:1;stop-color:#264d9d"
         offset="0"
         id="stop466" />
      <stop
         style="stop-opacity:1;stop-color:#264d9d"
         offset="0.00533234"
         id="stop468" />
      <stop
         style="stop-opacity:1;stop-color:#216caa"
         offset="0.285942"
         id="stop470" />
      <stop
         style="stop-opacity:1;stop-color:#41954b"
         offset="0.608528"
         id="stop472" />
      <stop
         style="stop-opacity:1;stop-color:#79bc43"
         offset="1"
         id="stop474" />
    </radialGradient>
    <radialGradient
       fx="0"
       fy="0"
       cx="0"
       cy="0"
       r="1"
       gradientUnits="userSpaceOnUse"
       gradientTransform="matrix(156.75894,-88.80764,-88.80764,-156.75894,84.956558,324.42072)"
       spreadMethod="pad"
       id="radialGradient502">
      <stop
         style="stop-opacity:1;stop-color:#264d9d"
         offset="0"
         id="stop492" />
      <stop
         style="stop-opacity:1;stop-color:#264d9d"
         offset="0.00533234"
         id="stop494" />
      <stop
         style="stop-opacity:1;stop-color:#216caa"
         offset="0.285942"
         id="stop496" />
      <stop
         style="stop-opacity:1;stop-color:#41954b"
         offset="0.608528"
         id="stop498" />
      <stop
         style="stop-opacity:1;stop-color:#79bc43"
         offset="1"
         id="stop500" />
    </radialGradient>
    <radialGradient
       fx="0"
       fy="0"
       cx="0"
       cy="0"
       r="1"
       gradientUnits="userSpaceOnUse"
       gradientTransform="matrix(156.75894,-88.80764,-88.80764,-156.75894,84.956558,324.42072)"
       spreadMethod="pad"
       id="radialGradient528">
      <stop
         style="stop-opacity:1;stop-color:#264d9d"
         offset="0"
         id="stop518" />
      <stop
         style="stop-opacity:1;stop-color:#264d9d"
         offset="0.00533234"
         id="stop520" />
      <stop
         style="stop-opacity:1;stop-color:#216caa"
         offset="0.285942"
         id="stop522" />
      <stop
         style="stop-opacity:1;stop-color:#41954b"
         offset="0.608528"
         id="stop524" />
      <stop
         style="stop-opacity:1;stop-color:#79bc43"
         offset="1"
         id="stop526" />
    </radialGradient>
    <radialGradient
       fx="0"
       fy="0"
       cx="0"
       cy="0"
       r="1"
       gradientUnits="userSpaceOnUse"
       gradientTransform="matrix(156.75894,-88.80764,-88.80764,-156.75894,84.956558,324.42072)"
       spreadMethod="pad"
       id="radialGradient554">
      <stop
         style="stop-opacity:1;stop-color:#264d9d"
         offset="0"
         id="stop544" />
      <stop
         style="stop-opacity:1;stop-color:#264d9d"
         offset="0.00533234"
         id="stop546" />
      <stop
         style="stop-opacity:1;stop-color:#216caa"
         offset="0.285942"
         id="stop548" />
      <stop
         style="stop-opacity:1;stop-color:#41954b"
         offset="0.608528"
         id="stop550" />
      <stop
         style="stop-opacity:1;stop-color:#79bc43"
         offset="1"
         id="stop552" />
    </radialGradient>
    <radialGradient
       fx="0"
       fy="0"
       cx="0"
       cy="0"
       r="1"
       gradientUnits="userSpaceOnUse"
       gradientTransform="matrix(156.75894,-88.80764,-88.80764,-156.75894,84.956558,324.42072)"
       spreadMethod="pad"
       id="radialGradient580">
      <stop
         style="stop-opacity:1;stop-color:#264d9d"
         offset="0"
         id="stop570" />
      <stop
         style="stop-opacity:1;stop-color:#264d9d"
         offset="0.00533234"
         id="stop572" />
      <stop
         style="stop-opacity:1;stop-color:#216caa"
         offset="0.285942"
         id="stop574" />
      <stop
         style="stop-opacity:1;stop-color:#41954b"
         offset="0.608528"
         id="stop576" />
      <stop
         style="stop-opacity:1;stop-color:#79bc43"
         offset="1"
         id="stop578" />
    </radialGradient>
    <radialGradient
       fx="0"
       fy="0"
       cx="0"
       cy="0"
       r="1"
       gradientUnits="userSpaceOnUse"
       gradientTransform="matrix(156.75894,-88.80764,-88.80764,-156.75894,84.956558,324.42072)"
       spreadMethod="pad"
       id="radialGradient606">
      <stop
         style="stop-opacity:1;stop-color:#264d9d"
         offset="0"
         id="stop596" />
      <stop
         style="stop-opacity:1;stop-color:#264d9d"
         offset="0.00533234"
         id="stop598" />
      <stop
         style="stop-opacity:1;stop-color:#216caa"
         offset="0.285942"
         id="stop600" />
      <stop
         style="stop-opacity:1;stop-color:#41954b"
         offset="0.608528"
         id="stop602" />
      <stop
         style="stop-opacity:1;stop-color:#79bc43"
         offset="1"
         id="stop604" />
    </radialGradient>
    <radialGradient
       fx="0"
       fy="0"
       cx="0"
       cy="0"
       r="1"
       gradientUnits="userSpaceOnUse"
       gradientTransform="matrix(156.75894,-88.80764,-88.80764,-156.75894,84.956558,324.42072)"
       spreadMethod="pad"
       id="radialGradient632">
      <stop
         style="stop-opacity:1;stop-color:#264d9d"
         offset="0"
         id="stop622" />
      <stop
         style="stop-opacity:1;stop-color:#264d9d"
         offset="0.00533234"
         id="stop624" />
      <stop
         style="stop-opacity:1;stop-color:#216caa"
         offset="0.285942"
         id="stop626" />
      <stop
         style="stop-opacity:1;stop-color:#41954b"
         offset="0.608528"
         id="stop628" />
      <stop
         style="stop-opacity:1;stop-color:#79bc43"
         offset="1"
         id="stop630" />
    </radialGradient>
    <radialGradient
       fx="0"
       fy="0"
       cx="0"
       cy="0"
       r="1"
       gradientUnits="userSpaceOnUse"
       gradientTransform="matrix(156.75894,-88.80764,-88.80764,-156.75894,84.956558,324.42072)"
       spreadMethod="pad"
       id="radialGradient658">
      <stop
         style="stop-opacity:1;stop-color:#264d9d"
         offset="0"
         id="stop648" />
      <stop
         style="stop-opacity:1;stop-color:#264d9d"
         offset="0.00533234"
         id="stop650" />
      <stop
         style="stop-opacity:1;stop-color:#216caa"
         offset="0.285942"
         id="stop652" />
      <stop
         style="stop-opacity:1;stop-color:#41954b"
         offset="0.608528"
         id="stop654" />
      <stop
         style="stop-opacity:1;stop-color:#79bc43"
         offset="1"
         id="stop656" />
    </radialGradient>
    <radialGradient
       fx="0"
       fy="0"
       cx="0"
       cy="0"
       r="1"
       gradientUnits="userSpaceOnUse"
       gradientTransform="matrix(156.75894,-88.80764,-88.80764,-156.75894,84.956558,324.42072)"
       spreadMethod="pad"
       id="radialGradient684">
      <stop
         style="stop-opacity:1;stop-color:#264d9d"
         offset="0"
         id="stop674" />
      <stop
         style="stop-opacity:1;stop-color:#264d9d"
         offset="0.00533234"
         id="stop676" />
      <stop
         style="stop-opacity:1;stop-color:#216caa"
         offset="0.285942"
         id="stop678" />
      <stop
         style="stop-opacity:1;stop-color:#41954b"
         offset="0.608528"
         id="stop680" />
      <stop
         style="stop-opacity:1;stop-color:#79bc43"
         offset="1"
         id="stop682" />
    </radialGradient>
    <radialGradient
       fx="0"
       fy="0"
       cx="0"
       cy="0"
       r="1"
       gradientUnits="userSpaceOnUse"
       gradientTransform="matrix(156.75894,-88.80764,-88.80764,-156.75894,84.956558,324.42072)"
       spreadMethod="pad"
       id="radialGradient710">
      <stop
         style="stop-opacity:1;stop-color:#264d9d"
         offset="0"
         id="stop700" />
      <stop
         style="stop-opacity:1;stop-color:#264d9d"
         offset="0.00533234"
         id="stop702" />
      <stop
         style="stop-opacity:1;stop-color:#216caa"
         offset="0.285942"
         id="stop704" />
      <stop
         style="stop-opacity:1;stop-color:#41954b"
         offset="0.608528"
         id="stop706" />
      <stop
         style="stop-opacity:1;stop-color:#79bc43"
         offset="1"
         id="stop708" />
    </radialGradient>
    <radialGradient
       fx="0"
       fy="0"
       cx="0"
       cy="0"
       r="1"
       gradientUnits="userSpaceOnUse"
       gradientTransform="matrix(156.75894,-88.80764,-88.80764,-156.75894,84.956558,324.42072)"
       spreadMethod="pad"
       id="radialGradient736">
      <stop
         style="stop-opacity:1;stop-color:#264d9d"
         offset="0"
         id="stop726" />
      <stop
         style="stop-opacity:1;stop-color:#264d9d"
         offset="0.00533234"
         id="stop728" />
      <stop
         style="stop-opacity:1;stop-color:#216caa"
         offset="0.285942"
         id="stop730" />
      <stop
         style="stop-opacity:1;stop-color:#41954b"
         offset="0.608528"
         id="stop732" />
      <stop
         style="stop-opacity:1;stop-color:#79bc43"
         offset="1"
         id="stop734" />
    </radialGradient>
    <radialGradient
       fx="0"
       fy="0"
       cx="0"
       cy="0"
       r="1"
       gradientUnits="userSpaceOnUse"
       gradientTransform="matrix(156.75894,-88.80764,-88.80764,-156.75894,84.956558,324.42072)"
       spreadMethod="pad"
       id="radialGradient762">
      <stop
         style="stop-opacity:1;stop-color:#264d9d"
         offset="0"
         id="stop752" />
      <stop
         style="stop-opacity:1;stop-color:#264d9d"
         offset="0.00533234"
         id="stop754" />
      <stop
         style="stop-opacity:1;stop-color:#216caa"
         offset="0.285942"
         id="stop756" />
      <stop
         style="stop-opacity:1;stop-color:#41954b"
         offset="0.608528"
         id="stop758" />
      <stop
         style="stop-opacity:1;stop-color:#79bc43"
         offset="1"
         id="stop760" />
    </radialGradient>
    <radialGradient
       fx="0"
       fy="0"
       cx="0"
       cy="0"
       r="1"
       gradientUnits="userSpaceOnUse"
       gradientTransform="matrix(156.75894,-88.80764,-88.80764,-156.75894,84.956558,324.42072)"
       spreadMethod="pad"
       id="radialGradient788">
      <stop
         style="stop-opacity:1;stop-color:#264d9d"
         offset="0"
         id="stop778" />
      <stop
         style="stop-opacity:1;stop-color:#264d9d"
         offset="0.00533234"
         id="stop780" />
      <stop
         style="stop-opacity:1;stop-color:#216caa"
         offset="0.285942"
         id="stop782" />
      <stop
         style="stop-opacity:1;stop-color:#41954b"
         offset="0.608528"
         id="stop784" />
      <stop
         style="stop-opacity:1;stop-color:#79bc43"
         offset="1"
         id="stop786" />
    </radialGradient>
    <radialGradient
       fx="0"
       fy="0"
       cx="0"
       cy="0"
       r="1"
       gradientUnits="userSpaceOnUse"
       gradientTransform="matrix(156.75894,-88.80764,-88.80764,-156.75894,84.956558,324.42072)"
       spreadMethod="pad"
       id="radialGradient814">
      <stop
         style="stop-opacity:1;stop-color:#264d9d"
         offset="0"
         id="stop804" />
      <stop
         style="stop-opacity:1;stop-color:#264d9d"
         offset="0.00533234"
         id="stop806" />
      <stop
         style="stop-opacity:1;stop-color:#216caa"
         offset="0.285942"
         id="stop808" />
      <stop
         style="stop-opacity:1;stop-color:#41954b"
         offset="0.608528"
         id="stop810" />
      <stop
         style="stop-opacity:1;stop-color:#79bc43"
         offset="1"
         id="stop812" />
    </radialGradient>
    <radialGradient
       fx="0"
       fy="0"
       cx="0"
       cy="0"
       r="1"
       gradientUnits="userSpaceOnUse"
       gradientTransform="matrix(156.75894,-88.80764,-88.80764,-156.75894,84.956558,324.42072)"
       spreadMethod="pad"
       id="radialGradient840">
      <stop
         style="stop-opacity:1;stop-color:#264d9d"
         offset="0"
         id="stop830" />
      <stop
         style="stop-opacity:1;stop-color:#264d9d"
         offset="0.00533234"
         id="stop832" />
      <stop
         style="stop-opacity:1;stop-color:#216caa"
         offset="0.285942"
         id="stop834" />
      <stop
         style="stop-opacity:1;stop-color:#41954b"
         offset="0.608528"
         id="stop836" />
      <stop
         style="stop-opacity:1;stop-color:#79bc43"
         offset="1"
         id="stop838" />
    </radialGradient>
    <radialGradient
       fx="0"
       fy="0"
       cx="0"
       cy="0"
       r="1"
       gradientUnits="userSpaceOnUse"
       gradientTransform="matrix(156.75894,-88.80764,-88.80764,-156.75894,84.956558,324.42072)"
       spreadMethod="pad"
       id="radialGradient866">
      <stop
         style="stop-opacity:1;stop-color:#264d9d"
         offset="0"
         id="stop856" />
      <stop
         style="stop-opacity:1;stop-color:#264d9d"
         offset="0.00533234"
         id="stop858" />
      <stop
         style="stop-opacity:1;stop-color:#216caa"
         offset="0.285942"
         id="stop860" />
      <stop
         style="stop-opacity:1;stop-color:#41954b"
         offset="0.608528"
         id="stop862" />
      <stop
         style="stop-opacity:1;stop-color:#79bc43"
         offset="1"
         id="stop864" />
    </radialGradient>
    <radialGradient
       fx="0"
       fy="0"
       cx="0"
       cy="0"
       r="1"
       gradientUnits="userSpaceOnUse"
       gradientTransform="matrix(156.75894,-88.80764,-88.80764,-156.75894,84.956558,324.42072)"
       spreadMethod="pad"
       id="radialGradient892">
      <stop
         style="stop-opacity:1;stop-color:#264d9d"
         offset="0"
         id="stop882" />
      <stop
         style="stop-opacity:1;stop-color:#264d9d"
         offset="0.00533234"
         id="stop884" />
      <stop
         style="stop-opacity:1;stop-color:#216caa"
         offset="0.285942"
         id="stop886" />
      <stop
         style="stop-opacity:1;stop-color:#41954b"
         offset="0.608528"
         id="stop888" />
      <stop
         style="stop-opacity:1;stop-color:#79bc43"
         offset="1"
         id="stop890" />
    </radialGradient>
    <radialGradient
       fx="0"
       fy="0"
       cx="0"
       cy="0"
       r="1"
       gradientUnits="userSpaceOnUse"
       gradientTransform="matrix(156.75894,-88.80764,-88.80764,-156.75894,84.956558,324.42072)"
       spreadMethod="pad"
       id="radialGradient918">
      <stop
         style="stop-opacity:1;stop-color:#264d9d"
         offset="0"
         id="stop908" />
      <stop
         style="stop-opacity:1;stop-color:#264d9d"
         offset="0.00533234"
         id="stop910" />
      <stop
         style="stop-opacity:1;stop-color:#216caa"
         offset="0.285942"
         id="stop912" />
      <stop
         style="stop-opacity:1;stop-color:#41954b"
         offset="0.608528"
         id="stop914" />
      <stop
         style="stop-opacity:1;stop-color:#79bc43"
         offset="1"
         id="stop916" />
    </radialGradient>
    <radialGradient
       fx="0"
       fy="0"
       cx="0"
       cy="0"
       r="1"
       gradientUnits="userSpaceOnUse"
       gradientTransform="matrix(156.75894,-88.80764,-88.80764,-156.75894,84.956558,324.42072)"
       spreadMethod="pad"
       id="radialGradient944">
      <stop
         style="stop-opacity:1;stop-color:#264d9d"
         offset="0"
         id="stop934" />
      <stop
         style="stop-opacity:1;stop-color:#264d9d"
         offset="0.00533234"
         id="stop936" />
      <stop
         style="stop-opacity:1;stop-color:#216caa"
         offset="0.285942"
         id="stop938" />
      <stop
         style="stop-opacity:1;stop-color:#41954b"
         offset="0.608528"
         id="stop940" />
      <stop
         style="stop-opacity:1;stop-color:#79bc43"
         offset="1"
         id="stop942" />
    </radialGradient>
    <radialGradient
       fx="0"
       fy="0"
       cx="0"
       cy="0"
       r="1"
       gradientUnits="userSpaceOnUse"
       gradientTransform="matrix(156.75894,-88.80764,-88.80764,-156.75894,84.956558,324.42072)"
       spreadMethod="pad"
       id="radialGradient970">
      <stop
         style="stop-opacity:1;stop-color:#264d9d"
         offset="0"
         id="stop960" />
      <stop
         style="stop-opacity:1;stop-color:#264d9d"
         offset="0.00533234"
         id="stop962" />
      <stop
         style="stop-opacity:1;stop-color:#216caa"
         offset="0.285942"
         id="stop964" />
      <stop
         style="stop-opacity:1;stop-color:#41954b"
         offset="0.608528"
         id="stop966" />
      <stop
         style="stop-opacity:1;stop-color:#79bc43"
         offset="1"
         id="stop968" />
    </radialGradient>
    <radialGradient
       fx="0"
       fy="0"
       cx="0"
       cy="0"
       r="1"
       gradientUnits="userSpaceOnUse"
       gradientTransform="matrix(156.75894,-88.80764,-88.80764,-156.75894,84.956558,324.42072)"
       spreadMethod="pad"
       id="radialGradient996">
      <stop
         style="stop-opacity:1;stop-color:#264d9d"
         offset="0"
         id="stop986" />
      <stop
         style="stop-opacity:1;stop-color:#264d9d"
         offset="0.00533234"
         id="stop988" />
      <stop
         style="stop-opacity:1;stop-color:#216caa"
         offset="0.285942"
         id="stop990" />
      <stop
         style="stop-opacity:1;stop-color:#41954b"
         offset="0.608528"
         id="stop992" />
      <stop
         style="stop-opacity:1;stop-color:#79bc43"
         offset="1"
         id="stop994" />
    </radialGradient>
    <clipPath
       clipPathUnits="userSpaceOnUse"
       id="clipPath1006">
      <path
         d="M 0,595.276 H 841.89 V 0 H 0 Z"
         id="path1004" />
    </clipPath>
  </defs>
  <g
     id="g10"
     transform="matrix(1.3333333,0,0,-1.3333333,-41.641331,558.08132)">
    <g
       id="g12">
      <g
         id="g14"
         clip-path="url(#clipPath18)">
        <g
           id="g20"
           transform="translate(36.7809,293.0156)">
          <path
             d="m 0,0 -0.508,0.861 c 0.191,0.113 19.175,11.187 52.205,20.33 -5.579,1.679 -24.314,6.807 -36.667,4.089 l -0.35,-0.077 -0.185,0.306 C 14.407,25.654 5.747,40.158 6.631,53.298 l 0.021,0.31 0.288,0.119 c 0.139,0.057 14.018,5.652 29.425,3.022 1.739,0.704 19.381,7.537 40.093,4.282 -1.543,4.599 -8.721,28.227 -3.066,54.022 -4.509,-1.383 -27.039,-9.154 -42.393,-30.254 4.772,2.111 18.483,7.682 28.632,6.94 L 59.558,90.742 C 47.609,91.607 29.91,83.207 29.732,83.122 l -1.696,-0.814 1.068,1.549 c 17.224,24.947 44.561,32.326 44.834,32.398 l 0.799,0.208 -0.185,-0.804 C 67.977,87.018 77.576,60.838 77.673,60.577 l 0.305,-0.813 -0.856,0.145 C 55.357,63.6 36.803,55.85 36.618,55.771 l -0.136,-0.058 -0.146,0.026 C 22.37,58.167 9.668,53.692 7.61,52.914 6.963,41.22 13.956,28.456 15.172,26.333 30.05,29.402 53.399,21.713 53.635,21.634 L 55.206,21.11 53.607,20.677 C 19.705,11.49 0.193,0.114 0,0"
             style="fill:#41954b;fill-opacity:1;fill-rule:nonzero;stroke:none"
             id="path22" />
        </g>
        <g
           id="g24"
           transform="translate(67.2531,240.1386)">
          <path
             d="m 0,0 -0.372,0.04 c -0.845,0.092 -20.765,2.39 -26.337,15.312 l 0.918,0.396 C -20.847,4.282 -3.349,1.454 -0.621,1.08 2.338,7.212 20.363,25.339 24.653,29.607 h -0.252 c -15.087,0 -31.998,6.213 -32.172,6.278 -12.628,5.334 -20.998,15.453 -21.081,15.554 l 0.775,0.633 c 0.081,-0.099 8.303,-10.032 20.674,-15.258 0.158,-0.058 18.026,-6.639 33.277,-6.186 l 1.27,0.036 -0.905,-0.893 C 26.004,29.54 2.727,6.55 0.144,0.345 Z"
             style="fill:#41954b;fill-opacity:1;fill-rule:nonzero;stroke:none"
             id="path26" />
        </g>
        <g
           id="g28"
           transform="translate(114.4855,353.3974)">
          <path
             d="m 0,0 -0.999,0.04 c 0.841,21.231 17.302,35.459 19.121,36.967 1.859,14.116 14.941,23.178 15.074,23.268 l 0.164,0.112 0.195,-0.031 C 49.372,57.87 59.125,44.447 59.222,44.312 l 0.229,-0.321 -0.259,-0.298 C 46.993,29.643 44.506,13.662 44.022,8.893 c 14.024,14.422 41.825,14.003 44.195,13.941 9.984,6.291 23.562,6.788 27.386,6.796 -11.72,15.092 -29.27,21.077 -29.45,21.137 l 0.317,0.948 c 0.185,-0.061 18.649,-6.351 30.551,-22.297 l 0.627,-0.84 -1.047,0.041 c -0.168,0.01 -16.568,0.56 -27.977,-6.711 l -0.133,-0.084 -0.157,0.007 C 88.033,21.842 57.658,22.915 43.786,7.167 L 42.865,6.121 42.912,7.514 C 42.918,7.709 43.727,27.181 58.173,44.042 56.624,46.044 47.544,57.053 33.6,59.336 32.11,58.26 20.69,49.621 19.089,36.684 L 19.064,36.48 18.902,36.353 C 18.722,36.211 0.868,21.891 0,0"
             style="fill:#41954b;fill-opacity:1;fill-rule:nonzero;stroke:none"
             id="path30" />
        </g>
        <g
           id="g32"
           transform="translate(252.8629,275.0556)">
          <path
             d="m 0,0 -0.69,1.185 c -10.923,18.77 -37.959,25.04 -38.231,25.101 l 0.22,0.976 c 0.27,-0.061 26.588,-6.164 38.148,-24.377 0.734,5.649 2.742,27.418 -8.014,38.424 l -0.498,0.509 0.648,0.295 c 0.191,0.087 19.074,8.836 18.361,22.392 -0.693,13.18 -23.698,13.357 -24.755,13.357 h -0.035 l -0.339,-0.003 -0.128,0.314 c -0.079,0.19 -7.996,18.839 -33.788,21.894 1.578,-3.062 5.735,-13.903 -2.511,-31.804 l -0.908,0.418 c 4.912,10.663 5.214,18.721 4.603,23.602 -0.661,5.28 -2.502,8.083 -2.521,8.11 l -0.59,0.883 1.056,-0.107 c 14.196,-1.44 23.109,-7.499 28.085,-12.328 4.698,-4.558 6.831,-8.811 7.364,-9.981 1.373,-0.018 6.77,-0.184 12.174,-1.658 C 6.032,74.916 10.628,70.543 10.943,64.558 11.253,58.644 8.063,52.724 1.714,47.438 -2.042,44.309 -5.9,42.245 -7.377,41.506 -1.099,34.672 0.663,24.294 1.024,16.702 1.424,8.312 0.247,1.42 0.235,1.351 Z"
             style="fill:#41954b;fill-opacity:1;fill-rule:nonzero;stroke:none"
             id="path34" />
        </g>
        <g
           id="g36"
           transform="translate(193.3952,185.2119)">
          <path
             d="M 0,0 -0.106,0.039 C -0.918,0.341 -19.688,7.434 -22.517,19.139 -26.101,17.338 -45.42,8.097 -62.408,8.806 l -0.217,0.009 -0.141,0.165 c -0.163,0.19 -16.011,19.082 -9.616,46.955 -4.864,-1.332 -30.273,-7.747 -53.218,-3.197 4.095,-4.099 18.651,-17.66 32.786,-18.506 l 0.624,-0.037 -0.173,-0.6 c -0.057,-0.197 -5.561,-19.782 2.85,-29.074 L -90.09,3.73 c -0.954,0.434 -23.431,10.782 -30.546,24.423 l 0.887,0.463 c 5.759,-11.043 22.443,-20.165 28.141,-23.035 -6.218,9.207 -2.724,24.449 -1.877,27.697 -16.792,1.421 -33.809,19.761 -33.981,19.949 l -1.076,1.17 1.552,-0.344 c 25.508,-5.673 54.853,2.983 55.146,3.072 l 0.837,0.252 -0.207,-0.849 c -6.446,-26.432 7.529,-44.809 9.071,-46.732 18.382,-0.66 39.532,10.412 39.744,10.525 l 0.6,0.319 0.126,-0.667 C -19.587,8.877 -1.421,1.619 0.137,1.017 12.704,2.263 32.297,21.286 40.469,29.774 31.548,25.375 15.387,24.612 14.561,24.576 l -1.085,-0.048 0.669,0.856 c 7.667,9.797 -0.015,43.773 -0.094,44.115 l -0.286,1.247 1.056,-0.722 c 8.709,-5.96 20.954,-8.387 22.54,-8.683 14.396,8.021 21.303,29.867 21.371,30.088 l 0.277,0.891 0.589,-0.724 c 6.199,-7.622 7.537,-20.536 7.825,-25.653 10.342,23.943 7.294,50.343 7.261,50.614 l 0.993,0.121 c 0.034,-0.281 3.286,-28.405 -8.221,-53.105 l -0.954,0.208 c -10e-4,0.174 -0.2,17.093 -7.116,26.455 -1.493,-4.273 -8.55,-22.648 -21.698,-29.857 l -0.153,-0.084 -0.172,0.029 c -0.131,0.023 -12.689,2.232 -22.071,8.193 1.303,-6.111 6.527,-32.887 0.248,-42.883 4.44,0.29 22.053,1.771 27.893,7.284 0.502,0.546 0.784,0.86 0.811,0.891 l 0.769,-0.64 C 44.775,32.862 44.506,32.566 44.21,32.28 39.475,27.099 15.272,1.386 0.113,0.01 Z"
             style="fill:#41954b;fill-opacity:1;fill-rule:nonzero;stroke:none"
             id="path38" />
        </g>
        <g
           id="g40"
           transform="translate(156.5763,180.7724)">
          <path
             d="m 0,0 -0.46,0.888 c 0.133,0.069 13.353,7.128 14.616,23.469 l 0.997,-0.076 C 13.846,7.369 0.139,0.072 0,0"
             style="fill:#41954b;fill-opacity:1;fill-rule:nonzero;stroke:none"
             id="path42" />
        </g>
        <g
           id="g44"
           transform="translate(207.7545,209.8203)">
          <path
             d="m 0,0 c -23.886,9.156 -36.793,25.776 -36.921,25.943 l 0.794,0.608 C -36.001,26.387 -23.251,9.984 0.358,0.934 Z"
             style="fill:#41954b;fill-opacity:1;fill-rule:nonzero;stroke:none"
             id="path46" />
        </g>
      </g>
    </g>
    <g
       id="g48">
      <g
         id="g50">
        <g
           id="g56">
          <g
             id="g58">
            <path
               d="M 308.154,392.112 V 259.925 h 100.939 v 27.621 h -65.691 v 104.566 z"
               style="fill:url(#linearGradient70);stroke:none"
               id="path72" />
          </g>
        </g>
      </g>
    </g>
    <g
       id="g74">
      <g
         id="g76">
        <g
           id="g82">
          <g
             id="g84">
            <path
               d="m 437.576,259.925 h 35.249 v 132.187 h -35.249 z"
               style="fill:url(#linearGradient96);stroke:none"
               id="path98" />
          </g>
        </g>
      </g>
    </g>
    <g
       id="g100">
      <g
         id="g102">
        <g
           id="g108">
          <g
             id="g110">
            <path
               d="m 605.349,392.112 v -87.796 l -56.078,87.796 H 504.867 V 259.925 h 35.248 v 87.993 l 56.307,-87.993 h 44.175 v 132.187 z"
               style="fill:url(#linearGradient122);stroke:none"
               id="path124" />
          </g>
        </g>
      </g>
    </g>
    <g
       id="g126">
      <g
         id="g128">
        <g
           id="g134">
          <g
             id="g136">
            <path
               d="m 762.364,392.112 -42.345,-54.651 h -12.131 v 54.651 H 672.639 V 259.925 h 35.249 v 49.915 h 13.046 l 44.634,-49.915 h 45.091 l -57.909,63.923 52.645,68.264 z"
               style="fill:url(#linearGradient148);stroke:none"
               id="path150" />
          </g>
        </g>
      </g>
    </g>
    <g
       id="g152">
      <g
         id="g154"
         clip-path="url(#clipPath158)">
        <g
           id="g160"
           transform="translate(216.8805,312.5892)">
          <path
             d="m 0,0 c -0.294,0.393 -0.568,0.802 -0.811,1.232 -1.898,3.354 -1.685,7.489 -2.951,11.13 -1.275,3.667 -4.048,6.836 -4.447,10.698 -0.38,3.668 1.467,7.455 0.373,10.977 -0.877,2.822 -3.506,4.798 -6.289,5.791 -2.784,0.993 -5.776,1.185 -8.7,1.619 -8.935,1.326 -17.506,5.032 -24.593,10.634 -3.315,2.62 -7.183,6.491 -11.761,6.082 -4.99,-0.445 -9.781,-4.84 -14.11,-7.018 -6.141,-3.088 -13.218,-4.284 -20.032,-3.385 -4.845,0.639 -10.228,2.192 -14.281,-0.538 -3.307,-2.227 -4.397,-6.483 -5.688,-10.254 -3.268,-9.544 -9.394,-18.088 -17.382,-24.247 -2.083,-1.606 -4.342,-3.109 -5.766,-5.319 -2.282,-3.538 -1.793,-8.618 1.121,-11.656 0.888,-0.926 2.009,-1.738 2.391,-2.963 0.294,-0.941 0.092,-1.955 -0.071,-2.927 -0.81,-4.841 -0.576,-9.854 0.683,-14.599 0.569,-2.146 1.353,-4.339 0.991,-6.53 -0.362,-2.194 -1.822,-4.036 -2.602,-6.119 -1.371,-3.661 -0.41,-8.084 2.358,-10.846 1.833,-1.829 4.271,-2.889 6.545,-4.128 7.817,-4.257 15.954,-10.197 20.56,-17.978 2.246,-3.794 2.404,-7.719 6.466,-10.206 5.73,-3.509 9.145,-0.787 14.459,1.175 3.204,1.183 7.415,0.127 10.764,-0.011 4.071,-0.167 8.141,-0.436 12.209,-0.654 0.928,-0.05 1.884,-0.107 2.718,-0.516 0.975,-0.478 1.662,-1.376 2.436,-2.138 3.914,-3.855 10.797,-3.661 14.927,-0.248 2.153,1.778 2.735,4.435 4.833,6.216 3.54,3.006 8.921,5.277 13.081,7.401 3.951,2.016 8.536,2.237 12.829,2.994 2.025,0.357 4.065,0.855 5.824,1.92 4.548,2.757 6.116,9.43 3.33,13.959 -2.786,4.53 -9.379,6.157 -13.988,3.503 -5.818,-3.35 -4.011,-8.139 -4.596,-13.459 -0.537,-4.878 -10.918,-7.271 -14.727,-8.629 -4.934,-1.757 -5.176,1.16 -8.972,2.896 -4.589,2.099 -10.375,0.951 -13.267,-3.368 -0.744,-1.111 -1.265,-2.378 -2.152,-3.379 -2.713,-3.062 -12.257,-1.595 -15.9,-1.182 -1.773,0.2 -3.787,0.455 -5.389,1.301 -0.398,0.209 -2.838,2.576 -2.76,2.576 -0.855,2.154 -1.615,4.636 -3.463,6.088 -3.496,2.747 -8.068,2.808 -12.026,1.108 -4.317,-1.856 -5.358,-1.503 -8.689,1.821 -2.366,2.361 -4.484,4.971 -6.527,7.614 -3.676,4.756 -0.43,7.299 -0.771,12.241 -0.189,2.723 -1.372,5.326 -3.605,6.969 -1.552,1.141 -3.417,1.788 -5.006,2.879 -3.501,2.405 -5.271,6.746 -5.575,10.982 -0.303,4.237 0.662,8.451 1.62,12.589 6.35,0.792 10.719,8.568 8.094,14.404 -0.861,1.913 -2.31,3.573 -2.807,5.612 -1.058,4.334 2.435,8.332 5.643,11.432 2.641,2.552 5.566,5.242 9.216,5.641 2.009,0.22 4.035,-0.293 6.051,-0.165 3.652,0.233 7.058,2.763 8.335,6.192 0.845,2.267 0.872,4.931 2.447,6.768 1.564,1.822 4.167,2.259 6.547,2.58 5.588,0.754 11.868,1.334 16.297,-2.156 1.481,-1.167 2.665,-2.74 4.349,-3.587 4.801,-2.414 9.988,2.09 15.084,3.793 6.952,2.325 15.378,-1.501 18.203,-8.264 1.062,-2.541 1.391,-5.331 2.336,-7.917 0.945,-2.587 2.763,-5.126 5.444,-5.757 2.06,-0.484 4.406,0.21 6.228,-0.866 0.957,-0.565 1.597,-1.533 2.158,-2.493 2.377,-4.063 3.965,-8.587 4.649,-13.245 0.297,-2.026 0.414,-4.156 -0.327,-6.065 -1.927,-4.962 -8.303,-6.113 -13.611,-6.515 -5.229,-0.397 -10.895,-0.687 -15.273,2.2 -1.845,1.216 -3.339,2.935 -5.276,3.998 -3.233,1.775 -7.533,1.359 -10.366,-1.001 -1.572,-1.309 -2.72,-3.145 -4.519,-4.119 -1.607,-0.869 -3.513,-0.929 -5.34,-0.97 -3.028,-0.067 -6.056,-0.133 -9.084,-0.2 -2.651,-0.059 -5.443,-0.085 -7.769,1.189 -1.947,1.066 -3.336,2.925 -5.167,4.18 -3.819,2.618 -9.503,2.025 -12.7,-1.324 -3.197,-3.349 -3.525,-9.055 -0.732,-12.748 2.792,-3.693 8.371,-4.933 12.465,-2.77 1.907,1.008 3.433,2.611 5.262,3.754 4.371,2.732 9.888,2.55 15.035,2.278 2.92,-0.155 5.973,-0.348 8.48,-1.853 1.99,-1.194 3.457,-3.117 5.434,-4.332 3.198,-1.963 7.61,-1.704 10.556,0.621 1.651,1.303 2.852,3.163 4.674,4.214 1.99,1.146 4.411,1.158 6.707,1.139 3.757,-0.032 7.513,-0.064 11.27,-0.096 1.453,-0.013 2.959,-0.036 4.276,-0.651 1.744,-0.814 2.87,-2.52 4.325,-3.778 3.508,-3.034 9.22,-3.105 12.803,-0.16 3.583,2.946 4.617,8.564 2.319,12.592 C 3.965,-3.943 1.651,-2.206 0,0"
             style="fill:#264d9d;fill-opacity:1;fill-rule:nonzero;stroke:none"
             id="path162" />
        </g>
        <g
           id="g164"
           transform="translate(137.0207,235.2666)">
          <path
             d="m 0,0 c 1.453,0 2.917,-0.161 4.291,-0.312 1.016,-0.111 1.976,-0.216 2.858,-0.252 2.719,-0.113 5.477,-0.272 8.145,-0.426 1.361,-0.078 2.722,-0.157 4.082,-0.23 0.971,-0.052 2.178,-0.117 3.299,-0.667 0.984,-0.482 1.692,-1.229 2.317,-1.888 0.169,-0.179 0.337,-0.357 0.51,-0.527 3.187,-3.138 9.224,-3.215 12.919,-0.161 0.898,0.741 1.501,1.731 2.14,2.777 0.718,1.176 1.46,2.391 2.678,3.426 2.923,2.483 6.988,4.463 10.574,6.21 0.968,0.472 1.91,0.931 2.796,1.383 3.245,1.656 6.798,2.171 10.235,2.668 1.013,0.147 2.022,0.293 3.015,0.469 1.714,0.301 3.685,0.742 5.308,1.725 1.811,1.098 3.168,3.043 3.723,5.337 0.562,2.326 0.236,4.715 -0.894,6.553 -2.348,3.817 -8.049,5.243 -11.961,2.989 -3.681,-2.12 -3.689,-4.778 -3.699,-8.459 C 62.333,19.378 62.329,18.1 62.181,16.75 61.62,11.658 53.791,9.198 48.609,7.57 47.78,7.31 47.045,7.079 46.466,6.873 42.338,5.404 40.59,6.802 38.899,8.154 38.174,8.734 37.425,9.333 36.367,9.817 32.223,11.713 27.322,10.493 24.97,6.979 24.711,6.593 24.483,6.186 24.254,5.779 23.811,4.994 23.353,4.184 22.695,3.439 19.922,0.309 12.898,0.867 6.532,1.64 L 5.503,1.762 C 3.392,2.001 1.352,2.293 -0.418,3.228 -0.45,3.244 -3.145,5.049 -3.815,6.599 L -3.871,6.576 c -0.113,0.284 -0.224,0.574 -0.337,0.866 -0.676,1.764 -1.376,3.588 -2.659,4.596 -2.793,2.194 -6.722,2.534 -10.507,0.909 -5.017,-2.158 -6.712,-1.482 -10.34,2.138 -2.53,2.523 -4.784,5.338 -6.655,7.759 -2.795,3.616 -2.175,6.302 -1.576,8.9 0.296,1.282 0.602,2.609 0.495,4.154 -0.169,2.451 -1.261,4.587 -2.997,5.864 -0.723,0.531 -1.552,0.956 -2.429,1.406 -0.84,0.431 -1.708,0.876 -2.537,1.445 -3.579,2.457 -5.847,6.872 -6.222,12.112 -0.323,4.501 0.683,8.838 1.655,13.034 l 0.236,1.02 1.039,0.129 c 2.512,0.314 4.864,2.018 6.291,4.558 1.427,2.54 1.659,5.434 0.621,7.743 -0.296,0.658 -0.682,1.301 -1.089,1.982 -0.712,1.188 -1.449,2.417 -1.808,3.89 -1.22,5.001 2.378,9.311 6.059,12.867 2.437,2.355 5.775,5.581 10.095,6.053 1.216,0.133 2.383,0.034 3.512,-0.062 0.913,-0.077 1.776,-0.149 2.607,-0.097 3.063,0.195 5.952,2.341 7.024,5.219 0.257,0.689 0.435,1.444 0.622,2.244 0.384,1.637 0.819,3.492 2.093,4.976 2.018,2.353 5.308,2.797 7.484,3.091 6.177,0.834 12.61,1.33 17.426,-2.465 0.597,-0.47 1.131,-0.982 1.647,-1.476 0.812,-0.778 1.579,-1.512 2.449,-1.95 2.737,-1.376 5.922,0.188 9.294,1.844 1.505,0.74 3.063,1.506 4.639,2.032 7.733,2.589 16.921,-1.586 20.064,-9.108 0.621,-1.488 1.002,-3.024 1.37,-4.51 0.301,-1.217 0.586,-2.366 0.99,-3.47 0.454,-1.245 1.791,-4.204 4.378,-4.812 0.658,-0.155 1.417,-0.159 2.221,-0.164 1.399,-0.009 2.984,-0.019 4.427,-0.871 1.233,-0.728 2.021,-1.884 2.689,-3.026 2.459,-4.202 4.132,-8.969 4.838,-13.786 0.286,-1.947 0.498,-4.483 -0.412,-6.825 -2.273,-5.854 -9.59,-7.066 -14.896,-7.468 -4.733,-0.359 -11.218,-0.85 -16.212,2.443 -0.882,0.582 -1.668,1.249 -2.428,1.894 -0.919,0.78 -1.786,1.516 -2.744,2.042 -2.682,1.472 -6.334,1.12 -8.685,-0.839 -0.533,-0.444 -1.029,-0.977 -1.553,-1.541 -0.93,-0.998 -1.891,-2.029 -3.212,-2.744 -1.962,-1.062 -4.212,-1.111 -6.02,-1.151 l -9.085,-0.2 C 5.417,67.164 2.21,67.094 -0.53,68.594 c -1.262,0.69 -2.267,1.623 -3.24,2.524 -0.693,0.643 -1.347,1.249 -2.055,1.735 -3.232,2.214 -8.061,1.71 -10.767,-1.123 -2.705,-2.835 -2.984,-7.683 -0.621,-10.808 2.364,-3.126 7.105,-4.178 10.568,-2.349 0.949,0.501 1.82,1.193 2.743,1.924 0.762,0.606 1.552,1.232 2.425,1.777 4.934,3.083 11.02,2.761 15.909,2.503 2.802,-0.148 6.289,-0.333 9.173,-2.064 1.134,-0.681 2.078,-1.537 2.991,-2.364 0.823,-0.745 1.6,-1.45 2.456,-1.976 2.667,-1.638 6.385,-1.419 8.842,0.52 0.599,0.472 1.151,1.05 1.736,1.663 0.915,0.958 1.862,1.949 3.118,2.673 2.398,1.383 5.21,1.36 7.468,1.339 l 11.27,-0.096 c 1.453,-0.012 3.262,-0.027 4.898,-0.791 1.408,-0.657 2.405,-1.704 3.37,-2.718 0.443,-0.465 0.862,-0.905 1.302,-1.285 2.964,-2.563 7.84,-2.626 10.869,-0.135 3.029,2.489 3.911,7.285 1.969,10.69 -0.714,1.251 -1.75,2.334 -2.847,3.481 -0.812,0.848 -1.652,1.726 -2.388,2.709 -0.352,0.472 -0.652,0.927 -0.916,1.392 -1.247,2.205 -1.662,4.628 -2.064,6.971 -0.267,1.558 -0.519,3.028 -0.998,4.405 -0.46,1.324 -1.139,2.592 -1.858,3.933 -1.176,2.193 -2.391,4.46 -2.665,7.105 -0.184,1.779 0.087,3.507 0.349,5.178 0.309,1.975 0.601,3.841 0.084,5.508 -0.637,2.05 -2.641,3.853 -5.361,4.822 -1.984,0.708 -4.101,0.98 -6.342,1.268 -0.693,0.089 -1.385,0.178 -2.073,0.28 -9.232,1.371 -17.982,5.154 -25.303,10.942 -0.473,0.374 -0.958,0.772 -1.453,1.181 -2.777,2.287 -5.921,4.876 -9.245,4.584 -3.024,-0.27 -6.133,-2.275 -9.139,-4.214 -1.529,-0.986 -2.973,-1.917 -4.43,-2.65 -6.39,-3.213 -13.813,-4.465 -20.903,-3.533 -0.832,0.11 -1.68,0.246 -2.534,0.384 -4.03,0.647 -7.836,1.259 -10.713,-0.678 -2.513,-1.693 -3.612,-5.005 -4.674,-8.208 -0.144,-0.433 -0.287,-0.864 -0.433,-1.289 -3.347,-9.777 -9.699,-18.638 -17.884,-24.949 -0.317,-0.244 -0.639,-0.486 -0.96,-0.729 -1.747,-1.316 -3.395,-2.56 -4.462,-4.214 -1.907,-2.958 -1.493,-7.265 0.943,-9.806 0.19,-0.197 0.393,-0.39 0.594,-0.583 0.814,-0.777 1.737,-1.658 2.147,-2.969 0.383,-1.227 0.183,-2.406 0.006,-3.445 l -0.03,-0.178 c -0.772,-4.615 -0.546,-9.445 0.654,-13.966 0.083,-0.315 0.171,-0.631 0.26,-0.947 0.552,-1.978 1.123,-4.022 0.761,-6.212 -0.262,-1.586 -0.967,-2.932 -1.649,-4.233 -0.391,-0.747 -0.76,-1.452 -1.029,-2.169 -1.163,-3.106 -0.335,-6.914 2.014,-9.259 1.312,-1.309 3.021,-2.201 4.831,-3.145 0.46,-0.239 0.919,-0.48 1.371,-0.726 9.953,-5.42 17.063,-11.656 21.133,-18.531 0.781,-1.318 1.31,-2.609 1.821,-3.857 1.009,-2.461 1.805,-4.406 4.137,-5.833 4.055,-2.483 6.584,-1.417 10.414,0.196 0.868,0.366 1.766,0.744 2.743,1.105 C -2.879,-0.159 -1.445,0 0,0 m 31.913,-9.71 c -3.182,-10e-4 -6.308,1.096 -8.516,3.271 -0.197,0.194 -0.39,0.396 -0.582,0.599 -0.495,0.522 -0.962,1.015 -1.461,1.26 -0.572,0.28 -1.368,0.323 -2.139,0.364 -1.364,0.073 -2.729,0.153 -4.094,0.232 -2.655,0.153 -5.401,0.311 -8.096,0.421 -0.984,0.042 -1.993,0.152 -3.062,0.269 -2.527,0.278 -5.142,0.565 -7.121,-0.166 -0.923,-0.341 -1.788,-0.706 -2.617,-1.056 -4,-1.685 -7.779,-3.276 -13.145,0.01 -3.169,1.941 -4.276,4.642 -5.347,7.254 -0.47,1.149 -0.957,2.337 -1.627,3.468 -3.79,6.402 -10.514,12.264 -19.985,17.424 -0.437,0.238 -0.881,0.468 -1.325,0.701 -1.93,1.007 -3.926,2.048 -5.563,3.681 -3.204,3.199 -4.291,8.196 -2.703,12.435 0.334,0.892 0.764,1.713 1.181,2.508 0.598,1.141 1.163,2.22 1.346,3.33 0.254,1.534 -0.205,3.177 -0.691,4.916 -0.092,0.329 -0.183,0.657 -0.27,0.984 -1.308,4.932 -1.555,10.198 -0.713,15.231 l 0.032,0.185 c 0.131,0.776 0.256,1.509 0.087,2.048 -0.178,0.571 -0.75,1.117 -1.355,1.695 -0.233,0.223 -0.466,0.447 -0.687,0.676 -3.412,3.558 -3.97,9.365 -1.299,13.508 1.355,2.102 3.298,3.567 5.176,4.984 0.313,0.236 0.626,0.472 0.934,0.709 7.726,5.956 13.72,14.318 16.879,23.545 0.142,0.416 0.283,0.838 0.423,1.262 1.164,3.509 2.484,7.486 5.846,9.751 3.859,2.6 8.644,1.83 12.865,1.151 0.826,-0.132 1.646,-0.264 2.451,-0.37 6.5,-0.856 13.305,0.293 19.162,3.238 1.314,0.661 2.692,1.55 4.152,2.491 3.312,2.137 6.737,4.346 10.498,4.681 4.554,0.4 8.358,-2.734 11.419,-5.257 0.48,-0.395 0.949,-0.781 1.406,-1.143 6.91,-5.462 15.169,-9.034 23.883,-10.327 0.669,-0.099 1.342,-0.186 2.015,-0.272 2.3,-0.295 4.678,-0.601 6.968,-1.418 3.658,-1.304 6.288,-3.768 7.218,-6.758 0.724,-2.333 0.363,-4.636 0.015,-6.862 -0.243,-1.55 -0.472,-3.014 -0.328,-4.406 0.212,-2.056 1.238,-3.97 2.324,-5.995 0.742,-1.386 1.51,-2.818 2.048,-4.365 0.56,-1.612 0.845,-3.275 1.121,-4.884 0.374,-2.186 0.728,-4.251 1.718,-6 0.2,-0.353 0.431,-0.703 0.707,-1.071 v 0 c 0.627,-0.839 1.369,-1.614 2.154,-2.435 1.174,-1.227 2.388,-2.496 3.284,-4.068 2.679,-4.695 1.507,-11.061 -2.668,-14.493 -4.177,-3.435 -10.65,-3.352 -14.738,0.182 -0.549,0.476 -1.038,0.989 -1.512,1.487 -0.808,0.848 -1.571,1.65 -2.466,2.068 -1.045,0.487 -2.371,0.499 -3.654,0.51 l -11.27,0.095 c -1.996,0.017 -4.254,0.037 -5.945,-0.938 -0.883,-0.509 -1.642,-1.305 -2.447,-2.147 -0.63,-0.66 -1.282,-1.341 -2.047,-1.946 -3.464,-2.733 -8.511,-3.029 -12.27,-0.721 -1.094,0.673 -2.012,1.505 -2.9,2.31 -0.843,0.764 -1.64,1.485 -2.521,2.015 -2.244,1.346 -5.189,1.503 -7.788,1.64 -5.487,0.291 -10.341,0.336 -14.16,-2.052 -0.731,-0.456 -1.421,-1.003 -2.152,-1.583 -0.988,-0.784 -2.011,-1.594 -3.205,-2.225 -4.706,-2.487 -11.151,-1.057 -14.361,3.192 -3.212,4.247 -2.833,10.837 0.843,14.688 3.676,3.852 10.241,4.536 14.633,1.526 0.89,-0.61 1.657,-1.321 2.399,-2.009 0.877,-0.813 1.706,-1.581 2.64,-2.092 2.036,-1.115 4.68,-1.055 7.015,-1.006 l 9.085,0.2 c 1.563,0.035 3.334,0.074 4.658,0.79 0.889,0.481 1.644,1.292 2.444,2.151 0.565,0.607 1.15,1.235 1.829,1.801 3.313,2.761 8.267,3.239 12.049,1.164 1.223,-0.672 2.249,-1.543 3.241,-2.385 0.724,-0.614 1.408,-1.194 2.138,-1.676 3.828,-2.525 8.756,-2.379 14.335,-1.957 4.496,0.341 10.666,1.289 12.325,5.563 0.656,1.688 0.473,3.721 0.242,5.303 -0.652,4.44 -2.194,8.834 -4.46,12.707 -0.432,0.738 -0.95,1.559 -1.626,1.958 -0.745,0.44 -1.753,0.447 -2.92,0.454 -0.934,0.006 -1.901,0.012 -2.889,0.244 -2.823,0.664 -5.195,3.106 -6.509,6.701 -0.459,1.257 -0.777,2.539 -1.084,3.78 -0.357,1.44 -0.694,2.799 -1.227,4.074 -2.516,6.023 -10.154,9.491 -16.344,7.42 -1.385,-0.463 -2.785,-1.151 -4.267,-1.879 -3.7,-1.819 -7.895,-3.879 -11.966,-1.831 -1.272,0.639 -2.239,1.566 -3.175,2.462 -0.487,0.466 -0.946,0.906 -1.429,1.286 -3.894,3.07 -9.629,2.596 -15.167,1.849 -2.284,-0.309 -4.432,-0.699 -5.61,-2.071 -0.796,-0.929 -1.113,-2.279 -1.448,-3.708 -0.201,-0.855 -0.408,-1.74 -0.731,-2.607 -1.496,-4.014 -5.372,-6.893 -9.646,-7.165 -1.051,-0.066 -2.068,0.019 -3.05,0.102 -1.032,0.087 -2.007,0.169 -2.933,0.069 -3.051,-0.334 -5.581,-2.565 -8.336,-5.228 -3.069,-2.965 -6.09,-6.472 -5.229,-10 0.252,-1.031 0.841,-2.016 1.466,-3.059 0.434,-0.724 0.884,-1.474 1.252,-2.293 1.427,-3.172 1.15,-7.076 -0.741,-10.442 -1.698,-3.021 -4.441,-5.157 -7.481,-5.875 -0.846,-3.679 -1.631,-7.458 -1.364,-11.183 0.306,-4.26 2.147,-7.944 4.928,-9.853 0.671,-0.46 1.417,-0.843 2.207,-1.248 0.945,-0.484 1.922,-0.985 2.838,-1.66 2.447,-1.799 3.983,-4.741 4.213,-8.073 0.138,-1.991 -0.235,-3.608 -0.565,-5.036 -0.541,-2.347 -0.899,-3.899 1.027,-6.391 1.812,-2.345 3.991,-5.066 6.4,-7.47 2.994,-2.988 3.389,-3.071 7.037,-1.505 4.811,2.067 9.873,1.578 13.544,-1.306 1.934,-1.52 2.823,-3.835 3.607,-5.879 0.078,-0.202 0.155,-0.403 0.232,-0.6 C -0.689,7.416 0.667,6.132 1.039,5.851 2.453,5.127 4.408,4.905 5.84,4.742 L 6.893,4.617 c 3.17,-0.385 11.596,-1.403 13.556,0.812 0.448,0.506 0.809,1.146 1.192,1.825 0.267,0.473 0.535,0.944 0.836,1.394 3.163,4.723 9.671,6.396 15.138,3.898 1.395,-0.639 2.372,-1.42 3.158,-2.049 1.511,-1.208 2.135,-1.706 4.686,-0.798 0.608,0.217 1.379,0.46 2.251,0.734 3.894,1.223 11.143,3.501 11.488,6.645 0.132,1.19 0.135,2.388 0.138,3.546 0.011,3.966 0.022,8.067 5.202,11.05 5.327,3.067 12.81,1.191 16.013,-4.017 1.547,-2.514 2.004,-5.733 1.255,-8.83 C 81.064,15.762 79.211,13.138 76.721,11.629 74.675,10.39 72.367,9.864 70.38,9.515 69.357,9.334 68.318,9.184 67.274,9.032 64.079,8.569 60.775,8.091 57.973,6.661 57.071,6.201 56.112,5.733 55.127,5.254 51.7,3.584 47.816,1.691 45.181,-0.547 44.33,-1.27 43.743,-2.23 43.122,-3.248 42.417,-4.404 41.617,-5.714 40.332,-6.775 37.959,-8.736 34.912,-9.71 31.913,-9.71"
             style="fill:#264d9d;fill-opacity:1;fill-rule:nonzero;stroke:none"
             id="path166" />
        </g>
      </g>
    </g>
    <g
       id="g168">
      <g
         id="g170">
        <g
           id="g176">
          <g
             id="g178">
            <path
               d="m 138.73,415.042 c -0.567,-0.721 -0.802,-1.444 -0.66,-2.036 v 0 c 0.503,-2.096 4.386,-3.45 9.893,-3.45 v 0 c 5.507,0 9.39,1.354 9.893,3.45 v 0 c 0.143,0.592 -0.092,1.314 -0.66,2.036 v 0 c -1.382,1.752 -4.772,3.519 -9.233,3.519 v 0 c -4.462,0 -7.851,-1.767 -9.233,-3.519"
               style="fill:url(#radialGradient190);stroke:none"
               id="path192" />
          </g>
        </g>
      </g>
    </g>
    <g
       id="g194">
      <g
         id="g196">
        <g
           id="g202">
          <g
             id="g204">
            <path
               d="m 63.685,380.179 c -3.155,-3.154 -4.302,-6.801 -4.04,-9.016 v 0 c 0.108,-0.912 0.453,-1.589 0.972,-1.907 v 0 c 0.369,-0.226 0.794,-0.336 1.3,-0.336 v 0 c 2.032,0 5.073,1.829 8.135,4.892 v 0 c 3.895,3.894 5.683,7.597 4.556,9.436 v 0 c -0.392,0.641 -1.325,1.008 -2.559,1.008 v 0 c -2.072,0 -5.358,-1.071 -8.364,-4.077"
               style="fill:url(#radialGradient216);stroke:none"
               id="path218" />
          </g>
        </g>
      </g>
    </g>
    <g
       id="g220">
      <g
         id="g222">
        <g
           id="g228">
          <g
             id="g230">
            <path
               d="m 31.231,293.446 c 0,-5.973 3.128,-9.935 5.197,-9.935 v 0 c 0.123,0 0.243,0.014 0.358,0.042 v 0 c 2.096,0.503 3.45,4.387 3.45,9.893 v 0 c 0,5.507 -1.354,9.39 -3.45,9.894 v 0 c -0.115,0.027 -0.235,0.041 -0.358,0.041 v 0 c -2.069,0 -5.197,-3.963 -5.197,-9.935"
               style="fill:url(#radialGradient242);stroke:none"
               id="path244" />
          </g>
        </g>
      </g>
    </g>
    <g
       id="g246">
      <g
         id="g248">
        <g
           id="g254">
          <g
             id="g256">
            <path
               d="m 66.545,220.091 c -0.519,-0.317 -0.864,-0.994 -0.972,-1.906 v 0 c -0.263,-2.215 0.885,-5.862 4.04,-9.017 v 0 c 3.005,-3.006 6.291,-4.076 8.364,-4.076 v 0 c 1.234,0 2.166,0.367 2.559,1.008 v 0 c 1.126,1.839 -0.662,5.542 -4.555,9.436 v 0 c -3.063,3.063 -6.105,4.891 -8.135,4.892 v 0 c -0.507,0 -0.933,-0.11 -1.301,-0.337"
               style="fill:url(#radialGradient268);stroke:none"
               id="path270" />
          </g>
        </g>
      </g>
    </g>
    <g
       id="g272">
      <g
         id="g274">
        <g
           id="g280">
          <g
             id="g282">
            <path
               d="m 146.452,182.269 c -0.142,-0.591 0.093,-1.314 0.662,-2.035 v 0 c 1.381,-1.752 4.771,-3.52 9.232,-3.52 v 0 c 4.461,0 7.852,1.768 9.232,3.519 v 0 c 0.569,0.722 0.803,1.445 0.662,2.037 v 0 c -0.503,2.095 -4.387,3.449 -9.894,3.449 v 0 c -5.507,0 -9.39,-1.354 -9.894,-3.45"
               style="fill:url(#radialGradient294);stroke:none"
               id="path296" />
          </g>
        </g>
      </g>
    </g>
    <g
       id="g298">
      <g
         id="g300">
        <g
           id="g306">
          <g
             id="g308">
            <path
               d="m 234.257,221.464 c -3.895,-3.894 -5.683,-7.598 -4.556,-9.436 v 0 c 0.392,-0.641 1.325,-1.009 2.558,-1.009 v 0 c 2.073,0 5.359,1.071 8.365,4.077 v 0 c 3.155,3.155 4.302,6.802 4.04,9.017 v 0 c -0.108,0.911 -0.454,1.589 -0.972,1.907 v 0 c -0.369,0.226 -0.794,0.335 -1.299,0.335 v 0 c -2.032,0 -5.074,-1.828 -8.136,-4.891"
               style="fill:url(#radialGradient320);stroke:none"
               id="path322" />
          </g>
        </g>
      </g>
    </g>
    <g
       id="g324">
      <g
         id="g326">
        <g
           id="g332">
          <g
             id="g334">
            <path
               d="m 267.523,311.723 c -2.096,-0.503 -3.45,-4.387 -3.45,-9.894 v 0 c 0,-5.507 1.354,-9.39 3.45,-9.893 v 0 c 0.115,-0.028 0.235,-0.042 0.357,-0.042 v 0 c 2.07,0 5.198,3.963 5.198,9.935 v 0 c 0,5.973 -3.128,9.935 -5.197,9.935 v 0 c -0.123,0 -0.243,-0.014 -0.358,-0.041"
               style="fill:url(#radialGradient346);stroke:none"
               id="path348" />
          </g>
        </g>
      </g>
    </g>
    <g
       id="g350">
      <g
         id="g352">
        <g
           id="g358">
          <g
             id="g360">
            <path
               d="m 223.772,389.175 c -1.126,-1.838 0.663,-5.541 4.556,-9.435 v 0 c 3.064,-3.063 6.105,-4.892 8.136,-4.892 v 0 c 0.506,0 0.932,0.11 1.3,0.336 v 0 c 0.519,0.318 0.864,0.995 0.972,1.907 v 0 c 0.263,2.215 -0.885,5.862 -4.04,9.016 v 0 c -3.005,3.006 -6.29,4.077 -8.363,4.077 v 0 c -1.234,0 -2.167,-0.368 -2.561,-1.009"
               style="fill:url(#radialGradient372);stroke:none"
               id="path374" />
          </g>
        </g>
      </g>
    </g>
    <g
       id="g376">
      <g
         id="g378">
        <g
           id="g384">
          <g
             id="g386">
            <path
               d="m 92.937,389.058 c -3.508,-2.106 -6.021,-5.41 -6.405,-8.416 v 0 c -0.186,-1.466 0.176,-2.746 1.02,-3.605 v 0 c 0.86,-0.876 2.061,-1.309 3.531,-1.309 v 0 c 2.192,0 4.985,0.963 8.142,2.861 v 0 c 5.274,3.167 7.773,6.656 6.854,9.574 v 0 c -0.361,1.148 -1.321,2.07 -2.703,2.594 v 0 c -0.899,0.34 -1.926,0.506 -3.021,0.506 v 0 c -2.355,0 -5.024,-0.766 -7.418,-2.205"
               style="fill:url(#radialGradient398);stroke:none"
               id="path400" />
          </g>
        </g>
      </g>
    </g>
    <g
       id="g402">
      <g
         id="g404">
        <g
           id="g410">
          <g
             id="g412">
            <path
               d="m 51.818,328.991 c -2.764,-1.245 -5.19,-4.613 -6.181,-8.582 v 0 c -0.991,-3.969 -0.432,-8.082 1.423,-10.48 v 0 c 0.904,-1.168 2.065,-1.818 3.269,-1.828 v 0 h 0.038 c 3.043,0 5.636,3.403 7.121,9.35 v 0 c 1.489,5.97 0.788,10.205 -1.926,11.618 v 0 c -0.509,0.266 -1.079,0.398 -1.681,0.398 v 0 c -0.66,0 -1.359,-0.159 -2.063,-0.476"
               style="fill:url(#radialGradient424);stroke:none"
               id="path426" />
          </g>
        </g>
      </g>
    </g>
    <g
       id="g428">
      <g
         id="g430">
        <g
           id="g436">
          <g
             id="g438">
            <path
               d="m 61.629,251.563 h -10e-4 c -1.147,-0.362 -2.069,-1.322 -2.592,-2.703 v 0 c -1.075,-2.835 -0.408,-6.933 1.699,-10.44 v 0 c 2.105,-3.507 5.409,-6.021 8.416,-6.404 v 0 c 0.252,-0.032 0.498,-0.047 0.738,-0.047 v 0 c 1.155,0 2.155,0.368 2.866,1.066 v 0 c 2.183,2.143 1.617,6.397 -1.551,11.673 v 0 c -2.736,4.557 -5.714,7.041 -8.355,7.041 v 0 c -0.416,0 -0.823,-0.062 -1.22,-0.186"
               style="fill:url(#radialGradient450);stroke:none"
               id="path452" />
          </g>
        </g>
      </g>
    </g>
    <g
       id="g454">
      <g
         id="g456">
        <g
           id="g462">
          <g
             id="g464">
            <path
               d="m 120.723,201.046 c -0.556,-1.068 -0.529,-2.398 0.078,-3.745 v 0 c 1.244,-2.764 4.613,-5.19 8.583,-6.182 v 0 c 1.303,-0.324 2.622,-0.483 3.892,-0.483 v 0 c 2.594,0 4.978,0.663 6.589,1.909 v 0 c 1.168,0.903 1.816,2.064 1.826,3.267 v 0 c 0.027,3.06 -3.379,5.668 -9.351,7.159 v 0 c -2.058,0.514 -3.91,0.767 -5.511,0.767 v 0 c -3.043,0 -5.179,-0.914 -6.106,-2.692"
               style="fill:url(#radialGradient476);stroke:none"
               id="path478" />
          </g>
        </g>
      </g>
    </g>
    <g
       id="g480">
      <g
         id="g482">
        <g
           id="g488">
          <g
             id="g490">
            <path
               d="m 205.084,216.688 c -5.275,-3.168 -7.773,-6.658 -6.855,-9.575 v 0 c 0.363,-1.15 1.322,-2.071 2.704,-2.593 v 0 c 0.899,-0.342 1.925,-0.507 3.02,-0.507 v 0 c 2.355,0 5.024,0.766 7.419,2.205 v 0 c 3.507,2.105 6.02,5.409 6.405,8.415 v 0 c 0.186,1.466 -0.176,2.747 -1.02,3.606 v 0 c -0.859,0.876 -2.059,1.309 -3.529,1.309 v 0 c -2.192,0 -4.986,-0.964 -8.144,-2.86"
               style="fill:url(#radialGradient502);stroke:none"
               id="path504" />
          </g>
        </g>
      </g>
    </g>
    <g
       id="g506">
      <g
         id="g508">
        <g
           id="g514">
          <g
             id="g516">
            <path
               d="m 253.943,287.176 c -3.043,0 -5.637,-3.406 -7.122,-9.352 v 0 c -1.49,-5.97 -0.788,-10.205 1.926,-11.618 v 0 c 0.509,-0.265 1.079,-0.397 1.681,-0.397 v 0 c 0.659,0 1.36,0.159 2.063,0.475 v 0 c 2.764,1.244 5.19,4.613 6.181,8.583 v 0 c 0.991,3.968 0.432,8.082 -1.423,10.48 v 0 c -0.904,1.167 -2.066,1.818 -3.271,1.829 v 0 z"
               style="fill:url(#radialGradient528);stroke:none"
               id="path530" />
          </g>
        </g>
      </g>
    </g>
    <g
       id="g532">
      <g
         id="g534">
        <g
           id="g540">
          <g
             id="g542">
            <path
               d="m 231.554,362.24 c -2.183,-2.143 -1.618,-6.397 1.551,-11.673 v 0 c 2.735,-4.557 5.713,-7.04 8.353,-7.04 v 0 c 0.416,0 0.825,0.062 1.222,0.187 v 0 c 1.149,0.361 2.071,1.322 2.593,2.703 v 0 c 1.076,2.834 0.409,6.931 -1.699,10.438 v 0 c -2.105,3.507 -5.409,6.021 -8.416,6.405 v 0 c -0.252,0.032 -0.5,0.048 -0.74,0.048 v 0 c -1.155,0 -2.154,-0.369 -2.864,-1.068"
               style="fill:url(#radialGradient554);stroke:none"
               id="path556" />
          </g>
        </g>
      </g>
    </g>
    <g
       id="g558">
      <g
         id="g560">
        <g
           id="g566">
          <g
             id="g568">
            <path
               d="m 164.445,402.732 c -1.168,-0.905 -1.817,-2.065 -1.828,-3.269 v 0 c -0.027,-3.059 3.38,-5.667 9.35,-7.158 v 0 c 2.06,-0.513 3.912,-0.766 5.514,-0.766 v 0 c 3.042,0 5.179,0.914 6.104,2.692 v 0 c 0.557,1.067 0.53,2.395 -0.077,3.743 v 0 c -1.244,2.764 -4.613,5.19 -8.583,6.181 v 0 c -1.304,0.326 -2.624,0.484 -3.893,0.484 v 0 c -2.595,0 -4.978,-0.662 -6.587,-1.907"
               style="fill:url(#radialGradient580);stroke:none"
               id="path582" />
          </g>
        </g>
      </g>
    </g>
    <g
       id="g584">
      <g
         id="g586">
        <g
           id="g592">
          <g
             id="g594">
            <path
               d="m 76.906,359.535 c -3.282,-0.052 -7.025,-2.367 -9.532,-5.901 v 0 c -2.462,-3.469 -3.419,-7.57 -2.498,-10.703 v 0 c 0.511,-1.739 1.592,-3.017 3.041,-3.6 v 0 c 0.643,-0.258 1.33,-0.383 2.041,-0.372 v 0 c 3.626,0.056 6.866,3.561 8.947,6.493 v 0 c 3.75,5.284 4.513,9.685 2.15,12.392 v 0 c -0.955,1.092 -2.388,1.691 -4.043,1.691 v 0 c -0.035,0 -0.071,0 -0.106,0"
               style="fill:url(#radialGradient606);stroke:none"
               id="path608" />
          </g>
        </g>
      </g>
    </g>
    <g
       id="g610">
      <g
         id="g612">
        <g
           id="g618">
          <g
             id="g620">
            <path
               d="m 58.925,289.944 c -1.517,-0.023 -2.982,-0.794 -4.125,-2.169 v 0 c -2.034,-2.447 -2.873,-6.466 -2.19,-10.49 v 0 c 0.972,-5.727 4.798,-10.166 8.71,-10.106 v 0 c 0.625,0.009 1.226,0.136 1.788,0.376 v 0 c 3.304,1.412 4.526,5.707 3.442,12.097 v 0 c -1.085,6.389 -3.657,10.04 -7.243,10.282 v 0 c -0.102,0.007 -0.205,0.011 -0.308,0.011 v 0 c -0.025,0 -0.05,-10e-4 -0.074,-10e-4"
               style="fill:url(#radialGradient632);stroke:none"
               id="path634" />
          </g>
        </g>
      </g>
    </g>
    <g
       id="g636">
      <g
         id="g638">
        <g
           id="g644">
          <g
             id="g646">
            <path
               d="m 95.63,227.869 c -1.437,-0.022 -2.709,-0.482 -3.681,-1.331 v 0 c -1.176,-1.028 -1.773,-2.591 -1.683,-4.402 v 0 c 0.165,-3.26 2.422,-6.816 5.892,-9.279 v 0 c 2.597,-1.843 5.647,-2.876 8.367,-2.835 v 0 c 2.886,0.044 5.105,1.308 5.936,3.379 v 0 c 1.338,3.334 -0.836,7.237 -6.12,10.987 v 0 c -2.247,1.594 -5.551,3.482 -8.598,3.482 v 0 c -0.038,0 -0.076,0 -0.113,-0.001"
               style="fill:url(#radialGradient658);stroke:none"
               id="path660" />
          </g>
        </g>
      </g>
    </g>
    <g
       id="g662">
      <g
         id="g664">
        <g
           id="g670">
          <g
             id="g672">
            <path
               d="m 173.977,212.405 c -1.199,-0.018 -2.49,-0.144 -3.836,-0.372 v 0 c -6.389,-1.085 -10.041,-3.657 -10.283,-7.242 v 0 c -0.094,-1.389 0.452,-2.783 1.535,-3.925 v 0 c 1.839,-1.937 5.051,-3.061 8.593,-3.006 v 0 c 0.833,0.012 1.682,0.091 2.521,0.234 v 0 c 4.195,0.711 7.772,2.935 9.335,5.801 v 0 c 0.869,1.592 1.009,3.26 0.395,4.696 v 0 c -0.748,1.751 -2.737,3.817 -7.949,3.817 v 0 c -0.102,0 -0.206,-10e-4 -0.311,-0.003"
               style="fill:url(#radialGradient684);stroke:none"
               id="path686" />
          </g>
        </g>
      </g>
    </g>
    <g
       id="g688">
      <g
         id="g690">
        <g
           id="g696">
          <g
             id="g698">
            <path
               d="m 234.351,256.316 c -3.626,-0.055 -6.866,-3.561 -8.946,-6.492 v 0 c -3.751,-5.284 -4.514,-9.685 -2.151,-12.391 v 0 c 0.976,-1.117 2.449,-1.718 4.149,-1.691 v 0 c 3.283,0.05 7.025,2.366 9.532,5.899 v 0 c 2.462,3.47 3.42,7.571 2.498,10.703 v 0 c -0.511,1.739 -1.592,3.018 -3.041,3.6 v 0 c -0.618,0.248 -1.276,0.373 -1.956,0.373 v 0 c -0.029,0 -0.057,0 -0.085,-0.001"
               style="fill:url(#radialGradient710);stroke:none"
               id="path712" />
          </g>
        </g>
      </g>
    </g>
    <g
       id="g714">
      <g
         id="g716">
        <g
           id="g722">
          <g
             id="g724">
            <path
               d="m 242.99,328.097 h -0.001 c -0.625,-0.01 -1.227,-0.136 -1.788,-0.376 v 0 c -3.304,-1.412 -4.526,-5.708 -3.442,-12.097 v 0 c 1.086,-6.388 3.657,-10.041 7.243,-10.283 v 0 c 0.127,-0.008 0.254,-0.012 0.382,-0.01 v 0 c 1.517,0.024 2.981,0.794 4.125,2.169 v 0 c 2.034,2.447 2.873,6.467 2.19,10.491 v 0 c -0.966,5.688 -4.747,10.106 -8.63,10.106 v 0 c -0.027,0 -0.052,0 -0.079,0"
               style="fill:url(#radialGradient736);stroke:none"
               id="path738" />
          </g>
        </g>
      </g>
    </g>
    <g
       id="g740">
      <g
         id="g742">
        <g
           id="g748">
          <g
             id="g750">
            <path
               d="m 199.785,385.253 c -2.887,-0.044 -5.106,-1.308 -5.937,-3.378 v 0 c -1.338,-3.334 0.836,-7.237 6.12,-10.987 v 0 c 2.275,-1.614 5.633,-3.529 8.712,-3.482 v 0 c 1.436,0.023 2.708,0.482 3.679,1.331 v 0 c 1.178,1.028 1.775,2.591 1.683,4.403 v 0 c -0.163,3.261 -2.421,6.816 -5.891,9.278 v 0 c -2.546,1.807 -5.527,2.836 -8.205,2.836 v 0 c -0.054,0 -0.108,0 -0.161,-0.001"
               style="fill:url(#radialGradient762);stroke:none"
               id="path764" />
          </g>
        </g>
      </g>
    </g>
    <g
       id="g766">
      <g
         id="g768">
        <g
           id="g774">
          <g
             id="g776">
            <path
               d="m 134.324,397.417 c -0.834,-0.013 -1.683,-0.092 -2.523,-0.235 v 0 c -4.194,-0.712 -7.771,-2.935 -9.334,-5.801 v 0 c -0.869,-1.592 -1.009,-3.26 -0.395,-4.696 v 0 c 0.763,-1.787 2.816,-3.898 8.26,-3.814 v 0 c 1.199,0.018 2.49,0.143 3.836,0.371 v 0 c 6.389,1.086 10.041,3.657 10.283,7.243 v 0 c 0.093,1.389 -0.451,2.783 -1.536,3.925 v 0 c -1.796,1.892 -4.903,3.008 -8.347,3.008 v 0 c -0.081,0 -0.162,0 -0.244,-0.001"
               style="fill:url(#radialGradient788);stroke:none"
               id="path790" />
          </g>
        </g>
      </g>
    </g>
    <g
       id="g792">
      <g
         id="g794">
        <g
           id="g800">
          <g
             id="g802">
            <path
               d="m 108.824,412.455 c -4.01,-1.356 -6.496,-3.906 -7.181,-5.832 v 0 c -0.206,-0.579 -0.231,-1.08 -0.068,-1.34 v 0 c 0.531,-0.844 2.151,-0.97 3.069,-0.97 v 0 c 1.792,0 4.04,0.44 6.502,1.272 v 0 c 5.284,1.786 7.92,4.153 7.792,5.566 v 0 c -0.069,0.757 -1.933,2.108 -5.403,2.108 v 0 c -1.545,0 -3.13,-0.271 -4.711,-0.804"
               style="fill:url(#radialGradient814);stroke:none"
               id="path816" />
          </g>
        </g>
      </g>
    </g>
    <g
       id="g818">
      <g
         id="g820">
        <g
           id="g826">
          <g
             id="g828">
            <path
               d="m 40.327,348.187 c -1.876,-3.795 -1.831,-7.356 -0.954,-9.202 v 0 c 0.264,-0.555 0.6,-0.927 0.9,-0.995 v 0 c 0.089,-0.021 0.178,-0.031 0.273,-0.031 v 0 c 1.354,0 3.897,2.194 6.281,7.012 v 0 c 2.473,4.999 2.664,8.536 1.573,9.445 v 0 c -0.182,0.152 -0.481,0.184 -0.701,0.184 v 0 c -1.743,0 -5.182,-1.99 -7.372,-6.413"
               style="fill:url(#radialGradient840);stroke:none"
               id="path842" />
          </g>
        </g>
      </g>
    </g>
    <g
       id="g844">
      <g
         id="g846">
        <g
           id="g852">
          <g
             id="g854">
            <path
               d="m 38.641,264.421 c -0.306,-0.027 -0.689,-0.351 -1.024,-0.866 v 0 c -1.116,-1.714 -1.635,-5.237 -0.28,-9.247 v 0 c 1.623,-4.8 4.938,-7.356 6.706,-7.356 v 0 c 0.197,0 0.354,0.036 0.467,0.107 v 0 c 1.201,0.756 1.483,4.286 -0.303,9.571 v 0 c -1.73,5.118 -4.055,7.796 -5.458,7.796 v 0 c -0.035,0 -0.071,-0.002 -0.108,-0.005"
               style="fill:url(#radialGradient866);stroke:none"
               id="path868" />
          </g>
        </g>
      </g>
    </g>
    <g
       id="g870">
      <g
         id="g872">
        <g
           id="g878">
          <g
             id="g880">
            <path
               d="m 95.376,193.884 c -0.196,-0.236 -0.238,-0.736 -0.111,-1.337 v 0 c 0.422,-2 2.547,-4.858 6.341,-6.736 v 0 c 2.561,-1.267 4.748,-1.533 6.131,-1.533 v 0 c 2.544,0 3.93,0.882 4.066,1.478 v 0 c 0.315,1.385 -1.982,4.08 -6.982,6.554 v 0 c -2.877,1.423 -5.505,2.208 -7.401,2.208 v 0 c -0.692,0 -1.607,-0.111 -2.044,-0.634"
               style="fill:url(#radialGradient892);stroke:none"
               id="path894" />
          </g>
        </g>
      </g>
    </g>
    <g
       id="g896">
      <g
         id="g898">
        <g
           id="g904">
          <g
             id="g906">
            <path
               d="m 193.163,189.69 c -5.284,-1.786 -7.92,-4.151 -7.792,-5.565 v 0 c 0.069,-0.757 1.932,-2.109 5.403,-2.109 v 0 c 1.545,0 3.13,0.271 4.711,0.805 v 0 c 4.01,1.355 6.497,3.906 7.182,5.832 v 0 c 0.205,0.578 0.23,1.08 0.067,1.34 v 0 c -0.531,0.843 -2.15,0.969 -3.069,0.969 v 0 c -1.792,0 -4.04,-0.439 -6.502,-1.272"
               style="fill:url(#radialGradient918);stroke:none"
               id="path920" />
          </g>
        </g>
      </g>
    </g>
    <g
       id="g922">
      <g
         id="g924">
        <g
           id="g930">
          <g
             id="g932">
            <path
               d="m 257.482,250.304 c -2.473,-4.999 -2.664,-8.535 -1.573,-9.444 v 0 c 0.181,-0.152 0.482,-0.185 0.702,-0.185 v 0 c 1.742,0 5.182,1.99 7.371,6.415 v 0 c 1.877,3.793 1.831,7.354 0.954,9.201 v 0 c -0.264,0.555 -0.601,0.927 -0.9,0.996 v 0 c -0.089,0.019 -0.179,0.029 -0.273,0.029 v 0 c -1.354,0 -3.897,-2.194 -6.281,-7.012"
               style="fill:url(#radialGradient944);stroke:none"
               id="path946" />
          </g>
        </g>
      </g>
    </g>
    <g
       id="g948">
      <g
         id="g950">
        <g
           id="g956">
          <g
             id="g958">
            <path
               d="m 259.799,348.217 c -1.201,-0.756 -1.483,-4.287 0.303,-9.57 v 0 c 1.73,-5.12 4.055,-7.797 5.457,-7.797 v 0 c 0.036,0 0.072,10e-4 0.109,0.004 v 0 c 0.306,0.028 0.689,0.352 1.024,0.867 v 0 c 1.116,1.713 1.635,5.236 0.279,9.248 v 0 c -1.622,4.798 -4.937,7.355 -6.705,7.355 v 0 c -0.197,0 -0.353,-0.036 -0.467,-0.107"
               style="fill:url(#radialGradient970);stroke:none"
               id="path972" />
          </g>
        </g>
      </g>
    </g>
    <g
       id="g974">
      <g
         id="g976">
        <g
           id="g982">
          <g
             id="g984">
            <path
               d="m 192.506,409.52 c -0.315,-1.385 1.982,-4.081 6.982,-6.554 v 0 c 2.877,-1.424 5.506,-2.208 7.401,-2.208 v 0 c 0.691,0 1.607,0.11 2.044,0.634 v 0 c 0.196,0.236 0.239,0.735 0.112,1.336 v 0 c -0.423,2.001 -2.547,4.859 -6.343,6.737 v 0 c -2.56,1.267 -4.746,1.533 -6.129,1.533 v 0 c -2.545,0 -3.931,-0.882 -4.067,-1.478"
               style="fill:url(#radialGradient996);stroke:none"
               id="path998" />
          </g>
        </g>
      </g>
    </g>
    <g
       id="g1000">
      <g
         id="g1002"
         clip-path="url(#clipPath1006)">
        <g
           id="g1008"
           transform="translate(350.4138,210.5661)">
          <path
             d="m 0,0 c 0,-3.801 -1.689,-6.746 -5.068,-8.831 -3.379,-2.086 -8.137,-3.129 -14.275,-3.129 -11.411,0 -18.025,3.489 -19.841,10.469 l 6.148,1.082 c 0.708,-2.477 2.215,-4.294 4.52,-5.454 2.305,-1.16 5.439,-1.74 9.405,-1.74 4.1,0 7.263,0.618 9.49,1.857 2.227,1.238 3.34,3.055 3.34,5.453 0,1.346 -0.349,2.437 -1.047,3.276 -0.698,0.838 -1.679,1.53 -2.942,2.076 -1.262,0.546 -2.769,1.004 -4.519,1.374 -1.751,0.37 -3.69,0.77 -5.817,1.2 -3.701,0.72 -6.509,1.442 -8.425,2.163 -1.917,0.721 -3.429,1.526 -4.537,2.413 -1.108,0.887 -1.956,1.925 -2.542,3.114 -0.588,1.189 -0.881,2.553 -0.881,4.094 0,3.528 1.534,6.247 4.603,8.159 3.069,1.909 7.461,2.866 13.178,2.866 5.318,0 9.384,-0.717 12.197,-2.15 2.814,-1.433 4.787,-3.875 5.917,-7.325 l -6.249,-0.965 c -0.687,2.183 -1.994,3.767 -3.921,4.752 -1.928,0.984 -4.598,1.477 -8.01,1.477 -3.745,0 -6.604,-0.547 -8.575,-1.638 -1.973,-1.092 -2.958,-2.719 -2.958,-4.884 0,-1.267 0.382,-2.315 1.146,-3.143 0.765,-0.829 1.867,-1.531 3.307,-2.106 1.44,-0.575 4.31,-1.281 8.609,-2.12 1.44,-0.292 2.874,-0.589 4.303,-0.891 1.429,-0.303 2.798,-0.663 4.105,-1.083 C -8.032,9.947 -6.808,9.455 -5.666,8.89 -4.525,8.324 -3.534,7.633 -2.691,6.814 -1.85,5.995 -1.191,5.03 -0.714,3.919 -0.238,2.807 0,1.501 0,0"
             style="fill:#264d9d;fill-opacity:1;fill-rule:nonzero;stroke:none"
             id="path1010" />
        </g>
        <g
           id="g1012"
           transform="translate(370.8808,225.4214)">
          <path
             d="m 0,0 c 1.285,2.066 2.831,3.582 4.636,4.547 1.807,0.965 4.094,1.448 6.864,1.448 3.899,0 6.774,-0.854 8.625,-2.559 1.849,-1.707 2.774,-4.567 2.774,-8.583 V -26.231 H 16.884 V -6.17 c 0,2.222 -0.232,3.875 -0.698,4.956 -0.465,1.082 -1.23,1.877 -2.293,2.383 C 12.83,1.676 11.355,1.93 9.472,1.93 6.659,1.93 4.404,1.072 2.709,-0.644 1.014,-2.359 0.167,-4.669 0.167,-7.574 V -26.231 H -5.816 V 17.165 H 0.167 V 5.877 C 0.167,4.688 0.128,3.46 0.05,2.193 -0.027,0.926 -0.077,0.194 -0.099,0 Z"
             style="fill:#264d9d;fill-opacity:1;fill-rule:nonzero;stroke:none"
             id="path1014" />
        </g>
        <g
           id="g1016"
           transform="translate(420.1298,202.5538)">
          <path
             d="m 0,0 c 2.193,0 4.143,0.438 5.849,1.316 1.706,0.878 3.053,2.08 4.038,3.611 0.986,1.53 1.479,3.104 1.479,4.723 v 2.603 L 4.819,12.135 C 2.005,12.097 -0.128,11.843 -1.579,11.375 -3.031,10.907 -4.144,10.186 -4.92,9.211 -5.695,8.237 -6.083,6.96 -6.083,5.38 -6.083,3.665 -5.556,2.339 -4.504,1.404 -3.451,0.468 -1.951,0 0,0 m -1.363,-3.948 c -3.612,0 -6.326,0.838 -8.143,2.516 -1.817,1.675 -2.725,3.976 -2.725,6.9 0,3.275 1.224,5.791 3.673,7.545 2.448,1.754 6.397,2.69 11.848,2.807 l 8.076,0.117 v 1.725 c 0,2.574 -0.621,4.416 -1.861,5.528 -1.241,1.11 -3.191,1.666 -5.85,1.666 -2.681,0 -4.631,-0.4 -5.849,-1.199 -1.219,-0.8 -1.95,-2.076 -2.193,-3.83 l -6.249,0.497 c 1.019,5.692 5.827,8.538 14.425,8.538 4.519,0 7.921,-0.912 10.203,-2.734 2.282,-1.823 3.424,-4.46 3.424,-7.91 V 4.591 c 0,-1.56 0.232,-2.734 0.697,-3.524 0.466,-0.789 1.352,-1.184 2.659,-1.184 0.576,0 1.23,0.068 1.961,0.205 v -3.276 c -1.507,-0.311 -3.047,-0.467 -4.62,-0.467 -2.216,0 -3.828,0.511 -4.835,1.535 -1.009,1.023 -1.579,2.627 -1.713,4.811 H 11.366 C 9.837,0.273 8.059,-1.438 6.032,-2.442 4.005,-3.446 1.54,-3.948 -1.363,-3.948"
             style="fill:#264d9d;fill-opacity:1;fill-rule:nonzero;stroke:none"
             id="path1018" />
        </g>
        <g
           id="g1020"
           transform="translate(454.3894,199.1909)">
          <path
             d="m 0,0 v 24.271 c 0,2.223 -0.067,4.679 -0.199,7.369 H 5.45 c 0.178,-3.587 0.267,-5.742 0.267,-6.462 h 0.132 c 0.953,2.709 2.049,4.561 3.291,5.555 1.241,0.995 2.991,1.492 5.251,1.492 0.797,0 1.607,-0.098 2.426,-0.292 V 27.107 C 16.02,27.302 14.956,27.4 13.627,27.4 11.145,27.4 9.251,26.459 7.943,24.578 6.636,22.697 5.983,20.002 5.983,16.492 V 0 Z"
             style="fill:#264d9d;fill-opacity:1;fill-rule:nonzero;stroke:none"
             id="path1022" />
        </g>
        <g
           id="g1024"
           transform="translate(507.793,217.9355)">
          <path
             d="m 0,0 c -0.332,3.334 -1.297,5.765 -2.891,7.296 -1.596,1.53 -3.889,2.295 -6.881,2.295 -2.903,0 -5.201,-0.853 -6.896,-2.558 C -18.363,5.326 -19.277,2.982 -19.41,0 Z m -19.476,-4.036 c 0,-3.626 0.852,-6.424 2.558,-8.392 1.707,-1.969 4.199,-2.954 7.479,-2.954 2.592,0 4.669,0.458 6.232,1.375 1.561,0.915 2.62,2.076 3.174,3.479 l 5.251,-1.316 c -2.15,-4.99 -7.035,-7.486 -14.657,-7.486 -5.318,0 -9.367,1.394 -12.148,4.182 -2.781,2.788 -4.171,6.93 -4.171,12.428 0,5.224 1.39,9.231 4.171,12.019 2.781,2.787 6.752,4.182 11.916,4.182 10.568,0 15.853,-5.606 15.853,-16.814 v -0.703 z"
             style="fill:#264d9d;fill-opacity:1;fill-rule:nonzero;stroke:none"
             id="path1026" />
        </g>
        <g
           id="g1028"
           transform="translate(578.4064,232.3223)">
          <path
             d="m 0,0 c 0,1.404 -0.554,2.549 -1.661,3.436 -1.109,0.887 -2.615,1.331 -4.521,1.331 -2.127,0 -3.744,-0.502 -4.853,-1.506 -1.108,-1.004 -1.661,-2.394 -1.661,-4.167 0,-2.223 0.72,-4.601 2.16,-7.136 2.903,1.033 5.036,1.931 6.398,2.691 1.362,0.76 2.393,1.579 3.091,2.456 C -0.349,-2.018 0,-1.053 0,0 m -2.46,-26.785 c -4.387,4.561 -7.922,9.016 -10.602,13.363 -5.23,-1.949 -7.843,-4.883 -7.843,-8.802 0,-2.359 0.858,-4.226 2.575,-5.599 1.718,-1.375 4.061,-2.063 7.029,-2.063 1.574,0 3.147,0.268 4.72,0.804 1.573,0.536 2.947,1.302 4.121,2.297 m 13.228,-6.698 c -3.921,0 -7.223,1.239 -9.904,3.714 -1.661,-1.267 -3.556,-2.241 -5.684,-2.924 -2.126,-0.682 -4.353,-1.023 -6.68,-1.023 -4.764,0 -8.453,1.008 -11.067,3.027 -2.615,2.017 -3.922,4.819 -3.922,8.406 0,5.42 3.8,9.601 11.4,12.546 -0.731,1.208 -1.363,2.641 -1.894,4.298 -0.533,1.657 -0.799,3.168 -0.799,4.533 0,2.924 1.015,5.19 3.042,6.798 2.027,1.609 4.902,2.413 8.625,2.413 3.345,0 6.042,-0.741 8.092,-2.222 C 4.027,4.601 5.052,2.573 5.052,0 c 0,-2.301 -1.014,-4.347 -3.041,-6.141 -2.028,-1.794 -5.546,-3.567 -10.553,-5.322 2.46,-3.996 5.706,-8.012 9.739,-12.048 2.504,3.236 4.397,7.233 5.683,11.99 l 4.819,-1.258 c -1.396,-4.854 -3.745,-9.426 -7.046,-13.715 2.127,-1.91 4.431,-2.866 6.913,-2.866 1.573,0 2.869,0.157 3.888,0.469 v -3.948 c -1.24,-0.429 -2.803,-0.644 -4.686,-0.644"
             style="fill:#264d9d;fill-opacity:1;fill-rule:nonzero;stroke:none"
             id="path1030" />
        </g>
        <g
           id="g1032"
           transform="translate(630.8714,219.9824)">
          <path
             d="m 0,0 c 0,6.686 2.039,11.862 6.116,15.528 4.076,3.664 9.804,5.497 17.182,5.497 5.186,0 9.395,-0.77 12.63,-2.31 3.236,-1.54 5.728,-4.006 7.478,-7.399 L 37.358,9.737 c -1.33,2.34 -3.164,4.046 -5.501,5.117 -2.338,1.073 -5.246,1.609 -8.724,1.609 -5.407,0 -9.539,-1.438 -12.397,-4.313 C 7.878,9.274 6.448,5.224 6.448,0 c 0,-5.205 1.518,-9.314 4.553,-12.326 3.036,-3.012 7.235,-4.518 12.597,-4.518 3.058,0 5.91,0.409 8.558,1.228 2.648,0.819 4.791,1.931 6.431,3.334 v 7.427 H 24.595 v 4.679 h 19.841 v -14.212 c -2.481,-2.222 -5.523,-3.942 -9.123,-5.161 -3.6,-1.218 -7.506,-1.828 -11.715,-1.828 -4.897,0 -9.118,0.858 -12.663,2.574 -3.546,1.715 -6.254,4.186 -8.126,7.413 C 0.937,-8.164 0,-4.367 0,0"
             style="fill:#264d9d;fill-opacity:1;fill-rule:nonzero;stroke:none"
             id="path1034" />
        </g>
        <g
           id="g1036"
           transform="translate(691.9202,199.1909)">
          <path
             d="m 0,0 v 24.271 c 0,2.223 -0.067,4.679 -0.199,7.369 H 5.45 c 0.178,-3.587 0.267,-5.742 0.267,-6.462 h 0.132 c 0.953,2.709 2.049,4.561 3.291,5.555 1.241,0.995 2.991,1.492 5.251,1.492 0.797,0 1.606,-0.098 2.426,-0.292 V 27.107 C 16.02,27.302 14.956,27.4 13.627,27.4 11.145,27.4 9.251,26.459 7.943,24.578 6.636,22.697 5.983,20.002 5.983,16.492 V 0 Z"
             style="fill:#264d9d;fill-opacity:1;fill-rule:nonzero;stroke:none"
             id="path1038" />
        </g>
        <g
           id="g1040"
           transform="translate(745.3895,215.0404)">
          <path
             d="m 0,0 c 0,4.366 -0.737,7.539 -2.21,9.518 -1.474,1.979 -3.949,2.969 -7.428,2.969 -3.502,0 -6.032,-1.009 -7.594,-3.028 -1.563,-2.017 -2.343,-5.17 -2.343,-9.459 0,-4.172 0.769,-7.306 2.309,-9.402 1.54,-2.096 3.961,-3.143 7.262,-3.143 3.59,0 6.154,1.014 7.694,3.042 C -0.77,-7.476 0,-4.309 0,0 m 6.282,0 c 0,-5.537 -1.385,-9.661 -4.155,-12.369 -2.769,-2.711 -6.791,-4.066 -12.064,-4.066 -5.251,0 -9.218,1.409 -11.898,4.226 -2.682,2.817 -4.022,6.886 -4.022,12.209 0,10.917 5.372,16.376 16.12,16.376 5.494,0 9.538,-1.331 12.13,-3.992 C 4.986,9.723 6.282,5.594 6.282,0"
             style="fill:#264d9d;fill-opacity:1;fill-rule:nonzero;stroke:none"
             id="path1042" />
        </g>
        <g
           id="g1044"
           transform="translate(800.3554,199.1909)">
          <path
             d="m 0,0 h -6.947 l -6.282,22.371 -1.196,4.942 c -0.199,-0.878 -0.509,-2.14 -0.93,-3.788 -0.422,-1.647 -2.682,-9.489 -6.78,-23.525 h -6.914 l -10.07,31.64 h 5.916 l 6.082,-21.493 c 0.154,-0.468 0.631,-2.398 1.429,-5.79 l 0.565,2.164 7.511,25.119 h 6.415 L -4.92,9.913 -3.391,4.357 -2.36,8.421 4.453,31.64 h 5.85 z"
             style="fill:#264d9d;fill-opacity:1;fill-rule:nonzero;stroke:none"
             id="path1046" />
        </g>
      </g>
    </g>
  </g>
</svg>
